<svg xmlns="http://www.w3.org/2000/svg" xmlns:xlink="http://www.w3.org/1999/xlink" contentStyleType="text/css" height="1123px" preserveAspectRatio="none" style="width:987px;height:1123px;background:#FFFFFF;" version="1.1" viewBox="0 0 987 1123" width="987px" zoomAndPan="magnify"><defs/><g><!--cluster void loop()--><g id="cluster_void loop()"><rect fill="none" height="951" rx="2.5" ry="2.5" style="stroke:#181818;stroke-width:1.0;" width="799" x="7" y="166.5762"/><text fill="#000000" font-family="sans-serif" font-size="14" font-weight="bold" lengthAdjust="spacing" textLength="76" x="368.5" y="183.1094">void loop()</text></g><g id="elem_UC_LerSensorNivelBaixo"><ellipse cx="399.8762" cy="383.9796" fill="#90EE90" rx="50.3762" ry="27.9034" style="stroke:#228B22;stroke-width:0.5;"/><text fill="#000000" font-family="sans-serif" font-size="14" lengthAdjust="spacing" textLength="55" x="372.3762" y="378.9034">Ler N&#237;vel</text><text fill="#000000" font-family="sans-serif" font-size="14" lengthAdjust="spacing" textLength="44" x="377.8762" y="396.5128">(Baixo)</text></g><g id="elem_UC_LerSensorNivelAlto"><ellipse cx="240.8762" cy="1073.4796" fill="#90EE90" rx="50.3762" ry="27.9034" style="stroke:#228B22;stroke-width:0.5;"/><text fill="#000000" font-family="sans-serif" font-size="14" lengthAdjust="spacing" textLength="55" x="213.3762" y="1068.4034">Ler N&#237;vel</text><text fill="#000000" font-family="sans-serif" font-size="14" lengthAdjust="spacing" textLength="34" x="223.8762" y="1086.0128">(Alto)</text></g><g id="elem_UC_LigarBombaSubmersa"><ellipse cx="215.0538" cy="230.4796" fill="#90EE90" rx="68.0538" ry="27.9034" style="stroke:#228B22;stroke-width:0.5;"/><text fill="#000000" font-family="sans-serif" font-size="14" lengthAdjust="spacing" textLength="80" x="175.0538" y="225.4034">Ligar Bomba</text><text fill="#000000" font-family="sans-serif" font-size="14" lengthAdjust="spacing" textLength="74" x="178.0538" y="243.0128">(Submersa)</text></g><g id="elem_UC_DesligarBombaSubmersa"><ellipse cx="105.196" cy="939.4796" fill="#90EE90" rx="82.196" ry="27.9034" style="stroke:#228B22;stroke-width:0.5;"/><text fill="#000000" font-family="sans-serif" font-size="14" lengthAdjust="spacing" textLength="100" x="55.196" y="934.4034">Desligar Bomba</text><text fill="#000000" font-family="sans-serif" font-size="14" lengthAdjust="spacing" textLength="74" x="68.196" y="952.0128">(Submersa)</text></g><g id="elem_UC_LigarBombaSuperior"><ellipse cx="585.0538" cy="230.4796" fill="#90EE90" rx="68.0538" ry="27.9034" style="stroke:#228B22;stroke-width:0.5;"/><text fill="#000000" font-family="sans-serif" font-size="14" lengthAdjust="spacing" textLength="80" x="545.0538" y="225.4034">Ligar Bomba</text><text fill="#000000" font-family="sans-serif" font-size="14" lengthAdjust="spacing" textLength="64" x="553.0538" y="243.0128">(Superior)</text></g><g id="elem_UC_DesligarBombaSuperior"><ellipse cx="400.196" cy="230.4796" fill="#90EE90" rx="82.196" ry="27.9034" style="stroke:#228B22;stroke-width:0.5;"/><text fill="#000000" font-family="sans-serif" font-size="14" lengthAdjust="spacing" textLength="100" x="350.196" y="225.4034">Desligar Bomba</text><text fill="#000000" font-family="sans-serif" font-size="14" lengthAdjust="spacing" textLength="64" x="368.196" y="243.0128">(Superior)</text></g><g id="elem_UC_MostrarDadosSensores"><ellipse cx="748.9767" cy="537.4796" fill="#90EE90" rx="40.4767" ry="27.9034" style="stroke:#228B22;stroke-width:0.5;"/><text fill="#000000" font-family="sans-serif" font-size="14" lengthAdjust="spacing" textLength="34" x="731.9767" y="532.4034">Exibir</text><text fill="#000000" font-family="sans-serif" font-size="14" lengthAdjust="spacing" textLength="41" x="728.4767" y="550.0128">Dados</text></g><g id="elem_UC_AtenderRequisicaoI2C"><ellipse cx="728.9767" cy="230.4796" fill="#90EE90" rx="40.4767" ry="27.9034" style="stroke:#228B22;stroke-width:0.5;"/><text fill="#000000" font-family="sans-serif" font-size="14" lengthAdjust="spacing" textLength="40" x="708.9767" y="225.4034">Enviar</text><text fill="#000000" font-family="sans-serif" font-size="14" lengthAdjust="spacing" textLength="41" x="708.4767" y="243.0128">Dados</text></g><g id="elem_UC_LerSensoresDiversos"><ellipse cx="564.0894" cy="537.4796" fill="#90EE90" rx="71.5894" ry="27.9034" style="stroke:#228B22;stroke-width:0.5;"/><text fill="#000000" font-family="sans-serif" font-size="14" lengthAdjust="spacing" textLength="85" x="521.5894" y="532.4034">Ler Sensores</text><text fill="#000000" font-family="sans-serif" font-size="14" lengthAdjust="spacing" textLength="65" x="531.5894" y="550.0128">(Diversos)</text></g><g id="elem_UC_CalcularTempo"><ellipse cx="344.7548" cy="939.4796" fill="#90EE90" rx="48.2548" ry="27.9034" style="stroke:#228B22;stroke-width:0.5;"/><text fill="#000000" font-family="sans-serif" font-size="14" lengthAdjust="spacing" textLength="52" x="318.7548" y="934.4034">Calcular</text><text fill="#000000" font-family="sans-serif" font-size="14" lengthAdjust="spacing" textLength="44" x="322.7548" y="952.0128">Tempo</text></g><g id="elem_UC_LerSensorVazao"><ellipse cx="581.0624" cy="671.4796" fill="#90EE90" rx="39.0624" ry="27.9034" style="stroke:#228B22;stroke-width:0.5;"/><text fill="#000000" font-family="sans-serif" font-size="14" lengthAdjust="spacing" textLength="21" x="570.5624" y="666.4034">Ler</text><text fill="#000000" font-family="sans-serif" font-size="14" lengthAdjust="spacing" textLength="39" x="561.5624" y="684.0128">Vaz&#227;o</text></g><g id="elem_UC_CalcularElevacaoReal"><ellipse cx="617.1058" cy="805.4825" fill="#90EE90" rx="92.1058" ry="27.9063" style="stroke:#228B22;stroke-width:0.5;"/><text fill="#000000" font-family="sans-serif" font-size="14" lengthAdjust="spacing" textLength="114" x="559.1474" y="800.6742">Calcular Eleva&#231;&#227;o</text><text fill="#000000" font-family="sans-serif" font-size="14" lengthAdjust="spacing" textLength="52" x="590.1474" y="818.2836">Real (H)</text></g><g id="elem_UC_CalcularQuantidadeTotal"><ellipse cx="512.8173" cy="939.4796" fill="#90EE90" rx="84.3173" ry="27.9034" style="stroke:#228B22;stroke-width:0.5;"/><text fill="#000000" font-family="sans-serif" font-size="14" lengthAdjust="spacing" textLength="103" x="461.3173" y="934.4034">Calcular Volume</text><text fill="#000000" font-family="sans-serif" font-size="14" lengthAdjust="spacing" textLength="43" x="491.3173" y="952.0128">(&#193;gua)</text></g><g id="elem_UC_CalcularVazaoMedia"><ellipse cx="711.1604" cy="939.4796" fill="#90EE90" rx="78.6604" ry="27.9034" style="stroke:#228B22;stroke-width:0.5;"/><text fill="#000000" font-family="sans-serif" font-size="14" lengthAdjust="spacing" textLength="95" x="663.6604" y="934.4034">Calcular Vaz&#227;o</text><text fill="#000000" font-family="sans-serif" font-size="14" lengthAdjust="spacing" textLength="48" x="687.1604" y="952.0128">(M&#233;dia)</text></g><g id="elem_UC_ArmazenarDadosSensores"><ellipse cx="696.0685" cy="383.9796" fill="#90EE90" rx="59.5685" ry="27.9034" style="stroke:#228B22;stroke-width:0.5;"/><text fill="#000000" font-family="sans-serif" font-size="14" lengthAdjust="spacing" textLength="68" x="662.0685" y="378.9034">Armazenar</text><text fill="#000000" font-family="sans-serif" font-size="14" lengthAdjust="spacing" textLength="41" x="675.5685" y="396.5128">Dados</text></g><!--entity Serial--><g id="elem_Serial"><ellipse cx="956" cy="362.6855" fill="#FFA500" rx="8" ry="8" style="stroke:#000000;stroke-width:0.5;"/><path d="M956,370.6855 L956,397.6855 M943,378.6855 L969,378.6855 M956,397.6855 L943,412.6855 M956,397.6855 L969,412.6855 " fill="none" style="stroke:#000000;stroke-width:0.5;"/><text fill="#000000" font-family="sans-serif" font-size="14" font-weight="bold" lengthAdjust="spacing" textLength="40" x="936" y="428.7188">Serial</text><text fill="#000000" font-family="sans-serif" font-size="14" font-style="italic" lengthAdjust="spacing" textLength="49" x="931.5" y="351.1094">&#171;porta&#187;</text></g><!--entity BombaSuperior--><g id="elem_BombaSuperior"><ellipse cx="492" cy="33.6855" fill="#FFA500" rx="8" ry="8" style="stroke:#000000;stroke-width:0.5;"/><path d="M492,41.6855 L492,68.6855 M479,49.6855 L505,49.6855 M492,68.6855 L479,83.6855 M492,68.6855 L505,83.6855 " fill="none" style="stroke:#000000;stroke-width:0.5;"/><text fill="#000000" font-family="sans-serif" font-size="14" font-weight="bold" lengthAdjust="spacing" textLength="48" x="468" y="99.7188">Bomba</text><text fill="#000000" font-family="sans-serif" font-size="14" font-style="italic" lengthAdjust="spacing" textLength="68" x="458" y="22.1094">&#171;superior&#187;</text></g><!--entity BombaSubmersa--><g id="elem_BombaSubmersa"><ellipse cx="139" cy="33.6855" fill="#FFA500" rx="8" ry="8" style="stroke:#000000;stroke-width:0.5;"/><path d="M139,41.6855 L139,68.6855 M126,49.6855 L152,49.6855 M139,68.6855 L126,83.6855 M139,68.6855 L152,83.6855 " fill="none" style="stroke:#000000;stroke-width:0.5;"/><text fill="#000000" font-family="sans-serif" font-size="14" font-weight="bold" lengthAdjust="spacing" textLength="48" x="115" y="99.7188">Bomba</text><text fill="#000000" font-family="sans-serif" font-size="14" font-style="italic" lengthAdjust="spacing" textLength="78" x="100" y="22.1094">&#171;submersa&#187;</text></g><!--entity ProtocoloI2C--><g id="elem_ProtocoloI2C"><ellipse cx="729" cy="33.6855" fill="#FFA500" rx="8" ry="8" style="stroke:#000000;stroke-width:0.5;"/><path d="M729,41.6855 L729,68.6855 M716,49.6855 L742,49.6855 M729,68.6855 L716,83.6855 M729,68.6855 L742,83.6855 " fill="none" style="stroke:#000000;stroke-width:0.5;"/><text fill="#000000" font-family="sans-serif" font-size="14" font-weight="bold" lengthAdjust="spacing" textLength="73" x="692.5" y="99.7188">PRINCIPAL</text><text fill="#000000" font-family="sans-serif" font-size="14" font-style="italic" lengthAdjust="spacing" textLength="35" x="711.5" y="22.1094">&#171;I&#178;C&#187;</text></g><!--entity SensoresDiversos--><g id="elem_SensoresDiversos"><ellipse cx="856" cy="362.6855" fill="#FFA500" rx="8" ry="8" style="stroke:#000000;stroke-width:0.5;"/><path d="M856,370.6855 L856,397.6855 M843,378.6855 L869,378.6855 M856,397.6855 L843,412.6855 M856,397.6855 L869,412.6855 " fill="none" style="stroke:#000000;stroke-width:0.5;"/><text fill="#000000" font-family="sans-serif" font-size="14" font-weight="bold" lengthAdjust="spacing" textLength="67" x="822.5" y="428.7188">Sensores</text><text fill="#000000" font-family="sans-serif" font-size="14" font-style="italic" lengthAdjust="spacing" textLength="68" x="822" y="351.1094">&#171;diversos&#187;</text></g><!--link UC_LerSensorNivelAlto to UC_LerSensoresDiversos--><g id="link_UC_LerSensorNivelAlto_UC_LerSensoresDiversos"><path d="M243.87,1045.5062 C248.15,1012.5562 258.05,955.8362 279,911.5762 C315.35,834.7862 469.8983,649.3846 530.3183,578.1346 " fill="none" id="UC_LerSensorNivelAlto-to-UC_LerSensoresDiversos" style="stroke:#181818;stroke-width:1.0;"/><polygon fill="none" points="541.96,564.4062,525.7421,574.254,534.8944,582.0152,541.96,564.4062" style="stroke:#181818;stroke-width:1.0;"/><text fill="#000000" font-family="sans-serif" font-size="13" lengthAdjust="spacing" textLength="67" x="370" y="811.0713">&#171;extens&#227;o&#187;</text></g><!--link UC_LerSensorNivelBaixo to UC_LerSensoresDiversos--><g id="link_UC_LerSensorNivelBaixo_UC_LerSensoresDiversos"><path d="M425.27,408.4162 C455.46,436.3062 492.5491,470.5711 523.5691,499.2311 " fill="none" id="UC_LerSensorNivelBaixo-to-UC_LerSensoresDiversos" style="stroke:#181818;stroke-width:1.0;"/><polygon fill="none" points="536.79,511.4462,527.6408,494.8241,519.4974,503.6381,536.79,511.4462" style="stroke:#181818;stroke-width:1.0;"/><text fill="#000000" font-family="sans-serif" font-size="13" lengthAdjust="spacing" textLength="67" x="502" y="476.0713">&#171;extens&#227;o&#187;</text></g><!--link UC_LigarBombaSubmersa to UC_LerSensorNivelAlto--><g id="link_UC_LigarBombaSubmersa_UC_LerSensorNivelAlto"><path d="M215,258.6662 C215,288.9762 215,339.5462 215,383.0762 C215,383.0762 215,383.0762 215,605.5762 C215,773.0562 231.3333,967.8211 237.8933,1039.5211 " fill="none" id="UC_LigarBombaSubmersa-to-UC_LerSensorNivelAlto" style="stroke:#181818;stroke-width:1.0;stroke-dasharray:7.0,7.0;"/><polygon fill="#181818" points="238.44,1045.4962,241.6034,1036.1692,237.9844,1040.517,233.6366,1036.8981,238.44,1045.4962" style="stroke:#181818;stroke-width:1.0;"/><text fill="#000000" font-family="sans-serif" font-size="13" lengthAdjust="spacing" textLength="63" x="218" y="677.0713">&#171;depende&#187;</text></g><!--link UC_LigarBombaSubmersa to UC_LerSensorNivelBaixo--><g id="link_UC_LigarBombaSubmersa_UC_LerSensorNivelBaixo"><path d="M244.72,255.9162 C279.96,284.7762 333.5681,328.6745 367.8181,356.7245 " fill="none" id="UC_LigarBombaSubmersa-to-UC_LerSensorNivelBaixo" style="stroke:#181818;stroke-width:1.0;stroke-dasharray:7.0,7.0;"/><polygon fill="#181818" points="372.46,360.5262,368.0315,351.7291,368.5917,357.3581,362.9627,357.9183,372.46,360.5262" style="stroke:#181818;stroke-width:1.0;"/><text fill="#000000" font-family="sans-serif" font-size="13" lengthAdjust="spacing" textLength="63" x="302" y="303.0713">&#171;depende&#187;</text></g><!--link UC_DesligarBombaSubmersa to UC_LerSensorNivelAlto--><g id="link_UC_DesligarBombaSubmersa_UC_LerSensorNivelAlto"><path d="M116.7,967.3462 C124.33,982.7062 135.4,1001.6362 149,1015.5762 C164.49,1031.4462 179.976,1041.9169 197.856,1051.6969 " fill="none" id="UC_DesligarBombaSubmersa-to-UC_LerSensorNivelAlto" style="stroke:#181818;stroke-width:1.0;stroke-dasharray:7.0,7.0;"/><polygon fill="#181818" points="203.12,1054.5762,197.1435,1046.7479,198.7333,1052.1768,193.3045,1053.7666,203.12,1054.5762" style="stroke:#181818;stroke-width:1.0;"/><text fill="#000000" font-family="sans-serif" font-size="13" lengthAdjust="spacing" textLength="63" x="150" y="1012.0713">&#171;depende&#187;</text></g><!--link UC_LigarBombaSuperior to UC_LerSensorNivelBaixo--><g id="link_UC_LigarBombaSuperior_UC_LerSensorNivelBaixo"><path d="M555.28,255.9162 C520.04,284.7762 466.4319,328.6745 432.1819,356.7245 " fill="none" id="UC_LigarBombaSuperior-to-UC_LerSensorNivelBaixo" style="stroke:#181818;stroke-width:1.0;stroke-dasharray:7.0,7.0;"/><polygon fill="#181818" points="427.54,360.5262,437.0373,357.9183,431.4083,357.3581,431.9685,351.7291,427.54,360.5262" style="stroke:#181818;stroke-width:1.0;"/><text fill="#000000" font-family="sans-serif" font-size="13" lengthAdjust="spacing" textLength="63" x="515" y="303.0713">&#171;depende&#187;</text></g><!--link UC_DesligarBombaSuperior to UC_LerSensorNivelBaixo--><g id="link_UC_DesligarBombaSuperior_UC_LerSensorNivelBaixo"><path d="M400,258.6662 C400,286.1562 400,322.4762 400,349.9662 " fill="none" id="UC_DesligarBombaSuperior-to-UC_LerSensorNivelBaixo" style="stroke:#181818;stroke-width:1.0;stroke-dasharray:7.0,7.0;"/><polygon fill="#181818" points="400,355.9662,404,346.9662,400,350.9662,396,346.9662,400,355.9662" style="stroke:#181818;stroke-width:1.0;"/><text fill="#000000" font-family="sans-serif" font-size="13" lengthAdjust="spacing" textLength="63" x="401" y="303.0713">&#171;depende&#187;</text></g><!--reverse link UC_LerSensoresDiversos to UC_LerSensorVazao--><g id="link_UC_LerSensoresDiversos_UC_LerSensorVazao"><path d="M569.7763,583.4591 C572.7063,606.2391 574.59,620.8162 577.52,643.5862 " fill="none" id="UC_LerSensoresDiversos-backto-UC_LerSensorVazao" style="stroke:#181818;stroke-width:1.0;"/><polygon fill="none" points="567.48,565.6062,563.8253,584.2245,575.7272,582.6937,567.48,565.6062" style="stroke:#181818;stroke-width:1.0;"/><text fill="#000000" font-family="sans-serif" font-size="13" lengthAdjust="spacing" textLength="67" x="574" y="610.0713">&#171;extens&#227;o&#187;</text></g><!--reverse link UC_LerSensorVazao to UC_CalcularElevacaoReal--><g id="link_UC_LerSensorVazao_UC_CalcularElevacaoReal"><path d="M587.6744,705.3336 C590.7444,719.6936 593.58,731.7562 598,747.5762 C600.75,757.4262 604.18,768.0862 607.36,777.4962 " fill="none" id="UC_LerSensorVazao-backto-UC_CalcularElevacaoReal" style="stroke:#181818;stroke-width:1.0;stroke-dasharray:7.0,7.0;"/><polygon fill="#181818" points="586.42,699.4662,584.39,709.1035,587.4653,704.3557,592.2132,707.431,586.42,699.4662" style="stroke:#181818;stroke-width:1.0;"/><text fill="#000000" font-family="sans-serif" font-size="13" lengthAdjust="spacing" textLength="63" x="599" y="744.0713">&#171;depende&#187;</text></g><!--link UC_CalcularElevacaoReal to UC_CalcularVazaoMedia--><g id="link_UC_CalcularElevacaoReal_UC_CalcularVazaoMedia"><path d="M636.02,833.2862 C652.44,856.3362 672.5288,884.5593 688.8488,907.4693 " fill="none" id="UC_CalcularElevacaoReal-to-UC_CalcularVazaoMedia" style="stroke:#181818;stroke-width:1.0;stroke-dasharray:7.0,7.0;"/><polygon fill="#181818" points="692.33,912.3562,690.3662,902.7051,689.429,908.2838,683.8503,907.3467,692.33,912.3562" style="stroke:#181818;stroke-width:1.0;"/><text fill="#000000" font-family="sans-serif" font-size="13" lengthAdjust="spacing" textLength="63" x="670" y="878.0713">&#171;depende&#187;</text></g><!--link UC_CalcularElevacaoReal to UC_CalcularQuantidadeTotal--><g id="link_UC_CalcularElevacaoReal_UC_CalcularQuantidadeTotal"><path d="M596.2,832.9662 C578.07,855.9962 555.6033,884.5033 537.4733,907.5133 " fill="none" id="UC_CalcularElevacaoReal-to-UC_CalcularQuantidadeTotal" style="stroke:#181818;stroke-width:1.0;stroke-dasharray:7.0,7.0;"/><polygon fill="#181818" points="533.76,912.2262,542.4719,907.6324,536.8545,908.2988,536.1881,902.6813,533.76,912.2262" style="stroke:#181818;stroke-width:1.0;"/><text fill="#000000" font-family="sans-serif" font-size="13" lengthAdjust="spacing" textLength="63" x="572" y="878.0713">&#171;depende&#187;</text></g><!--link UC_CalcularElevacaoReal to UC_CalcularTempo--><g id="link_UC_CalcularElevacaoReal_UC_CalcularTempo"><path d="M563.55,828.4462 C539.35,838.6562 510.51,851.2562 485,863.5762 C448.12,881.3762 412.1611,900.8453 384.0611,916.5053 " fill="none" id="UC_CalcularElevacaoReal-to-UC_CalcularTempo" style="stroke:#181818;stroke-width:1.0;stroke-dasharray:7.0,7.0;"/><polygon fill="#181818" points="378.82,919.4262,388.6288,918.539,383.1876,916.9922,384.7344,911.5509,378.82,919.4262" style="stroke:#181818;stroke-width:1.0;"/><text fill="#000000" font-family="sans-serif" font-size="13" lengthAdjust="spacing" textLength="63" x="486" y="878.0713">&#171;depende&#187;</text></g><!--link UC_CalcularTempo to UC_LerSensorNivelAlto--><g id="link_UC_CalcularTempo_UC_LerSensorNivelAlto"><path d="M325.44,965.4062 C306.96,988.8562 283.1029,1019.133 264.5429,1042.693 " fill="none" id="UC_CalcularTempo-to-UC_LerSensorNivelAlto" style="stroke:#181818;stroke-width:1.0;stroke-dasharray:7.0,7.0;"/><polygon fill="#181818" points="260.83,1047.4062,269.5415,1042.8117,263.9241,1043.4785,263.2573,1037.8611,260.83,1047.4062" style="stroke:#181818;stroke-width:1.0;"/><text fill="#000000" font-family="sans-serif" font-size="13" lengthAdjust="spacing" textLength="63" x="300" y="1012.0713">&#171;depende&#187;</text></g><!--link UC_CalcularTempo to UC_LerSensorNivelBaixo--><g id="link_UC_CalcularTempo_UC_LerSensorNivelBaixo"><path d="M346.62,911.5362 C348.08,884.8662 350,842.9262 350,806.5762 C350,536.5762 350,536.5762 350,536.5762 C350,490.5962 368.3316,445.9102 383.1216,416.4002 " fill="none" id="UC_CalcularTempo-to-UC_LerSensorNivelBaixo" style="stroke:#181818;stroke-width:1.0;stroke-dasharray:7.0,7.0;"/><polygon fill="#181818" points="385.81,411.0362,378.2014,417.2899,383.5697,415.5062,385.3535,420.8744,385.81,411.0362" style="stroke:#181818;stroke-width:1.0;"/><text fill="#000000" font-family="sans-serif" font-size="13" lengthAdjust="spacing" textLength="63" x="351" y="677.0713">&#171;depende&#187;</text></g><!--reverse link UC_ArmazenarDadosSensores to UC_LerSensoresDiversos--><g id="link_UC_ArmazenarDadosSensores_UC_LerSensoresDiversos"><path d="M669.9677,414.9593 C645.6677,442.8393 610.8,482.8662 586.39,510.8862 " fill="none" id="UC_ArmazenarDadosSensores-backto-UC_LerSensoresDiversos" style="stroke:#181818;stroke-width:1.0;"/><polygon fill="#181818" points="673.91,410.4362,664.9812,414.5926,670.6248,414.2054,671.012,419.849,673.91,410.4362" style="stroke:#181818;stroke-width:1.0;"/></g><!--link UC_ArmazenarDadosSensores to UC_CalcularElevacaoReal--><g id="link_UC_ArmazenarDadosSensores_UC_CalcularElevacaoReal"><path d="M694.5472,418.17 C690.9572,497.06 679.95,716.9362 667,747.5762 C662.13,759.0962 658.0481,765.4967 649.7381,774.5467 " fill="none" id="UC_ArmazenarDadosSensores-UC_CalcularElevacaoReal" style="stroke:#181818;stroke-width:1.0;"/><polygon fill="#181818" points="694.82,412.1762,690.415,420.985,694.5927,417.171,698.4067,421.3487,694.82,412.1762" style="stroke:#181818;stroke-width:1.0;"/><polygon fill="#181818" points="645.68,778.9662,654.7135,775.0424,649.0618,775.2833,648.8208,769.6316,645.68,778.9662" style="stroke:#181818;stroke-width:1.0;"/></g><!--reverse link UC_ArmazenarDadosSensores to UC_MostrarDadosSensores--><g id="link_UC_ArmazenarDadosSensores_UC_MostrarDadosSensores"><path d="M707.3318,417.4794 C717.0218,445.1694 730.09,482.5162 739.74,510.1062 " fill="none" id="UC_ArmazenarDadosSensores-backto-UC_MostrarDadosSensores" style="stroke:#181818;stroke-width:1.0;stroke-dasharray:7.0,7.0;"/><polygon fill="#181818" points="705.35,411.8162,704.5472,421.6323,707.0015,416.5355,712.0982,418.9898,705.35,411.8162" style="stroke:#181818;stroke-width:1.0;"/><text fill="#000000" font-family="sans-serif" font-size="13" lengthAdjust="spacing" textLength="63" x="729" y="476.0713">&#171;depende&#187;</text></g><!--link UC_AtenderRequisicaoI2C to UC_ArmazenarDadosSensores--><g id="link_UC_AtenderRequisicaoI2C_UC_ArmazenarDadosSensores"><path d="M723.18,258.3162 C717.18,285.8362 709.1662,322.6235 703.1562,350.2335 " fill="none" id="UC_AtenderRequisicaoI2C-to-UC_ArmazenarDadosSensores" style="stroke:#181818;stroke-width:1.0;stroke-dasharray:7.0,7.0;"/><polygon fill="#181818" points="701.88,356.0962,707.7027,348.1529,702.9435,351.2106,699.8858,346.4513,701.88,356.0962" style="stroke:#181818;stroke-width:1.0;"/><text fill="#000000" font-family="sans-serif" font-size="13" lengthAdjust="spacing" textLength="63" x="717" y="303.0713">&#171;depende&#187;</text></g><!--reverse link BombaSubmersa to UC_LigarBombaSubmersa--><g id="link_BombaSubmersa_UC_LigarBombaSubmersa"><path d="M161.9765,108.5224 C175.9965,140.5424 191.66,176.2862 203.29,202.8362 " fill="none" id="BombaSubmersa-backto-UC_LigarBombaSubmersa" style="stroke:#181818;stroke-width:1.0;"/><polygon fill="#181818" points="159.57,103.0262,159.5156,112.8749,161.5754,107.6064,166.844,109.6662,159.57,103.0262" style="stroke:#181818;stroke-width:1.0;"/><text fill="#000000" font-family="sans-serif" font-size="13" lengthAdjust="spacing" textLength="44" x="181" y="147.0713">&#171;ativar&#187;</text></g><!--reverse link BombaSubmersa to UC_DesligarBombaSubmersa--><g id="link_BombaSubmersa_UC_DesligarBombaSubmersa"><path d="M118.0325,108.3768 C105.7325,142.8268 94,185.5462 94,229.5762 C94,229.5762 94,229.5762 94,806.5762 C94,843.0262 98.22,884.9362 101.43,911.5762 " fill="none" id="BombaSubmersa-backto-UC_DesligarBombaSubmersa" style="stroke:#181818;stroke-width:1.0;"/><polygon fill="#181818" points="120.05,102.7262,113.2567,109.8571,118.3688,107.435,120.7908,112.5471,120.05,102.7262" style="stroke:#181818;stroke-width:1.0;"/><text fill="#000000" font-family="sans-serif" font-size="13" lengthAdjust="spacing" textLength="65" x="95" y="543.0713">&#171;desativar&#187;</text></g><!--reverse link BombaSuperior to UC_LigarBombaSuperior--><g id="link_BombaSuperior_UC_LigarBombaSuperior"><path d="M520.0037,108.3149 C537.2137,140.4349 556.57,176.5462 570.8,203.0862 " fill="none" id="BombaSuperior-backto-UC_LigarBombaSuperior" style="stroke:#181818;stroke-width:1.0;"/><polygon fill="#181818" points="517.17,103.0262,517.8948,112.8483,519.5314,107.4334,524.9463,109.0701,517.17,103.0262" style="stroke:#181818;stroke-width:1.0;"/><text fill="#000000" font-family="sans-serif" font-size="13" lengthAdjust="spacing" textLength="44" x="542" y="147.0713">&#171;ativar&#187;</text></g><!--reverse link BombaSuperior to UC_DesligarBombaSuperior--><g id="link_BombaSuperior_UC_DesligarBombaSuperior"><path d="M454.3257,103.2493 C446.5357,114.0293 442.24,120.9762 436,132.5762 C423.91,155.0362 414.16,182.4262 407.87,202.3662 " fill="none" id="BombaSuperior-backto-UC_DesligarBombaSuperior" style="stroke:#181818;stroke-width:1.0;"/><polygon fill="#181818" points="457.84,98.3862,449.3265,103.338,454.9114,102.4388,455.8107,108.0237,457.84,98.3862" style="stroke:#181818;stroke-width:1.0;"/><text fill="#000000" font-family="sans-serif" font-size="13" lengthAdjust="spacing" textLength="65" x="437" y="147.0713">&#171;desativar&#187;</text></g><!--link ProtocoloI2C to UC_AtenderRequisicaoI2C--><g id="link_ProtocoloI2C_UC_AtenderRequisicaoI2C"><path d="M729,109.0262 C729,140.8362 729,169.7662 729,196.3362 " fill="none" id="ProtocoloI2C-UC_AtenderRequisicaoI2C" style="stroke:#181818;stroke-width:1.0;"/><polygon fill="#181818" points="729,103.0262,725,112.0262,729,108.0262,733,112.0262,729,103.0262" style="stroke:#181818;stroke-width:1.0;"/><polygon fill="#181818" points="729,202.3362,733,193.3362,729,197.3362,725,193.3362,729,202.3362" style="stroke:#181818;stroke-width:1.0;"/><text fill="#000000" font-family="sans-serif" font-size="13" lengthAdjust="spacing" textLength="64" x="730" y="147.0713">&#171;resposta&#187;</text></g><!--link SensoresDiversos to UC_LerSensoresDiversos--><g id="link_SensoresDiversos_UC_LerSensoresDiversos"><path d="M835.387,437.3678 C826.627,454.6478 817.14,467.5662 801,479.5762 C793.84,484.9062 698.9964,506.6712 631.1864,521.7812 " fill="none" id="SensoresDiversos-UC_LerSensoresDiversos" style="stroke:#181818;stroke-width:1.0;"/><polygon fill="#181818" points="838.1,432.0162,830.4628,438.2349,835.8392,436.4759,837.5983,441.8522,838.1,432.0162" style="stroke:#181818;stroke-width:1.0;"/><polygon fill="#181818" points="625.33,523.0862,634.9845,525.033,630.2103,521.9987,633.2446,517.2245,625.33,523.0862" style="stroke:#181818;stroke-width:1.0;"/><text fill="#000000" font-family="sans-serif" font-size="13" lengthAdjust="spacing" textLength="64" x="818" y="476.0713">&#171;resposta&#187;</text></g><!--reverse link Serial to UC_MostrarDadosSensores--><g id="link_Serial_UC_MostrarDadosSensores"><path d="M943.5278,437.2862 C937.6378,454.3062 930.59,466.8262 917,479.5762 C881.73,512.6562 826.53,526.5962 789.12,532.4362 " fill="none" id="Serial-backto-UC_MostrarDadosSensores" style="stroke:#181818;stroke-width:1.0;"/><polygon fill="#181818" points="945.49,431.6162,938.7666,438.8131,943.8548,436.3412,946.3267,441.4294,945.49,431.6162" style="stroke:#181818;stroke-width:1.0;"/><text fill="#000000" font-family="sans-serif" font-size="13" lengthAdjust="spacing" textLength="45" x="931" y="476.0713">&#171;exibir&#187;</text></g><!--SRC=[fLQzRjim4Dxr58IdPB0BT2mC0OwJjWQI84tIJ0QAayGwH2XI9IatIDEXpzAXoD2bZr2_M4-af4WocRzwyzrzttrtnwEehvWeG47EPNf5Cw8l8PDVcLYHpy0rZI8Z2s8aIQGnCYSPKpGrJ8eeqWsIG6ga8jyYWhyzIAzMIfOYcqkELgb0hAXpIPLHvSm9nxZeUvUbr3G5JGCyXsnrQTufIiKMrrkfgAvzo3YQ9l4PLGpuz5KIZyXqIWgf390u9g29SzceFPadq0Rfia0NyhauwpohRTxm9ATAGp_SsMpuoUdYUBuucHssaCNVF_Cw_4H98rEKltWzhnKBNTNH1cTiZLHIjxATVxysHr5KJGARooaPhINB29UosDaTsGOspVmu_tH8bGCV8vJl0RkM5U48xUHuynjjIx5ZpRkZXv0pRZp0ocfn0oXRWUhrn44hi-iLOXiNQXx0zwdcVeR6uo5vK4GzMvy8vneMFv3GmNiaj1HzZYEfZGArZokbcm5QYeDhbZ2r5DOpI3mpLE3PFgLVIgPP2jKHSI2nPj051QPrVqZQSJKE5DluFFsQ0qzB3kgSveKRTMDP2cjx8Ea5t41xF9O2_sv-slXGaWDEru3LdLBWlLp4UZQ_4ByKrhlpVZYS9lP32SAm339wBisGvqBoCgTOykR7geGGXHL-H3C60xIj0D57cpjqxhfQ1iNCL0utLFX6tBew0xDm_sADnxTnQ8flglk0NkEvq2W9BmGVYrlivzAqYhQtRJA90rejKKQBwfpUgtaYWzFffV1l_NDqR4kfz_O_fRo4PMlOdL5CRyTZp_eyDcWNDPrCWeiKQeatk2x7imdUdZo5OxYGBoPoTz1ZvRYePvxK9u13CtK4WQsV3cRQ-LW_0ej3NUaSen3Q7GRlbyPRlVVpKZSXa6F8Wu-i_eesbMylhuM2OMketbL-c7_jwwJw7Xprbz6JjFRua_PX_WNt9Es-rDfPUPjemTYl0cS15hkzzpK-U3qFuDLJjL4S7Z6rhuaAyWy0]--></g></svg>