<svg xmlns="http://www.w3.org/2000/svg" xmlns:xlink="http://www.w3.org/1999/xlink" contentStyleType="text/css" height="1190px" preserveAspectRatio="none" style="width:1278px;height:1190px;background:#FFFFFF;" version="1.1" viewBox="0 0 1278 1190" width="1278px" zoomAndPan="magnify"><defs/><g><!--cluster void loop()--><g id="cluster_void loop()"><rect fill="none" height="936" rx="2.5" ry="2.5" style="stroke:#181818;stroke-width:1.0;" width="1122" x="7" y="7"/><text fill="#000000" font-family="sans-serif" font-size="14" font-weight="bold" lengthAdjust="spacing" textLength="76" x="530" y="23.5332">void loop()</text></g><g id="elem_UC_ResponderRequisicoesWeb"><ellipse cx="410.4325" cy="406.9034" fill="#90EE90" rx="65.9325" ry="27.9034" style="stroke:#228B22;stroke-width:0.5;"/><text fill="#000000" font-family="sans-serif" font-size="14" lengthAdjust="spacing" textLength="50" x="385.4325" y="401.8272">Atender</text><text fill="#000000" font-family="sans-serif" font-size="14" lengthAdjust="spacing" textLength="77" x="371.9325" y="419.4366">Requisi&#231;&#245;es</text></g><g id="elem_UC_CalcularDados"><ellipse cx="103.0746" cy="553.9034" fill="#90EE90" rx="80.0746" ry="27.9034" style="stroke:#228B22;stroke-width:0.5;"/><text fill="#000000" font-family="sans-serif" font-size="14" lengthAdjust="spacing" textLength="97" x="54.5746" y="548.8272">Calcular Dados</text><text fill="#000000" font-family="sans-serif" font-size="14" lengthAdjust="spacing" textLength="63" x="71.5746" y="566.4366">(diversos)</text></g><g id="elem_UC_MostrarDadosLCD"><ellipse cx="1008.2462" cy="680.9034" fill="#90EE90" rx="77.2462" ry="27.9034" style="stroke:#228B22;stroke-width:0.5;"/><text fill="#000000" font-family="sans-serif" font-size="14" lengthAdjust="spacing" textLength="93" x="961.7462" y="675.8272">Mostrar Dados</text><text fill="#000000" font-family="sans-serif" font-size="14" lengthAdjust="spacing" textLength="38" x="989.2462" y="693.4366">(LCD)</text></g><g id="elem_UC_AtualizarAlarmeCavitacao"><ellipse cx="410.6457" cy="807.9034" fill="#90EE90" rx="87.1457" ry="27.9034" style="stroke:#228B22;stroke-width:0.5;"/><text fill="#000000" font-family="sans-serif" font-size="14" lengthAdjust="spacing" textLength="107" x="357.1457" y="802.8272">Controlar Alarme</text><text fill="#000000" font-family="sans-serif" font-size="14" lengthAdjust="spacing" textLength="73" x="374.1457" y="820.4366">(Cavita&#231;&#227;o)</text></g><g id="elem_UC_calcularDensidadeAgua"><ellipse cx="410.292" cy="679.9359" fill="#90EE90" rx="99.292" ry="27.9359" style="stroke:#228B22;stroke-width:0.5;"/><text fill="#000000" font-family="sans-serif" font-size="14" lengthAdjust="spacing" textLength="124" x="345.292" y="675.6478">Calcular Densidade</text><text fill="#000000" font-family="sans-serif" font-size="14" lengthAdjust="spacing" textLength="43" x="385.792" y="693.2572">(&#193;gua)</text></g><g id="elem_UC_calcularElevacaoEstimada"><ellipse cx="410.6058" cy="588.9063" fill="#90EE90" rx="92.1058" ry="27.9063" style="stroke:#228B22;stroke-width:0.5;"/><text fill="#000000" font-family="sans-serif" font-size="14" lengthAdjust="spacing" textLength="114" x="352.6474" y="584.098">Calcular Eleva&#231;&#227;o</text><text fill="#000000" font-family="sans-serif" font-size="14" lengthAdjust="spacing" textLength="67" x="376.1474" y="601.7074">(estimada)</text></g><g id="elem_UC_calcularFatorCavitacao"><ellipse cx="410.4607" cy="497.9472" fill="#90EE90" rx="101.4607" ry="27.9472" style="stroke:#228B22;stroke-width:0.5;"/><text fill="#000000" font-family="sans-serif" font-size="14" lengthAdjust="spacing" textLength="127" x="343.9607" y="493.6591">Calcular Coeficiente</text><text fill="#000000" font-family="sans-serif" font-size="14" lengthAdjust="spacing" textLength="73" x="370.9607" y="511.2685">(Cavita&#231;&#227;o)</text></g><g id="elem_UC_calcularPotenciaHidraulica"><ellipse cx="410.4748" cy="70.9036" fill="#90EE90" rx="89.9748" ry="27.9036" style="stroke:#228B22;stroke-width:0.5;"/><text fill="#000000" font-family="sans-serif" font-size="14" lengthAdjust="spacing" textLength="111" x="354.7409" y="65.8944">Calcular Pot&#234;ncia</text><text fill="#000000" font-family="sans-serif" font-size="14" lengthAdjust="spacing" textLength="72" x="374.2409" y="83.5038">(Hidr&#225;ulica)</text></g><g id="elem_UC_calcularVazaoEstimada"><ellipse cx="410.6604" cy="315.9034" fill="#90EE90" rx="78.6604" ry="27.9034" style="stroke:#228B22;stroke-width:0.5;"/><text fill="#000000" font-family="sans-serif" font-size="14" lengthAdjust="spacing" textLength="95" x="363.1604" y="310.8272">Calcular Vaz&#227;o</text><text fill="#000000" font-family="sans-serif" font-size="14" lengthAdjust="spacing" textLength="67" x="377.1604" y="328.4366">(estimada)</text></g><g id="elem_UC_converterLH_M3S"><ellipse cx="707.3112" cy="70.9034" fill="#90EE90" rx="63.8112" ry="27.9034" style="stroke:#228B22;stroke-width:0.5;"/><text fill="#000000" font-family="sans-serif" font-size="14" lengthAdjust="spacing" textLength="63" x="675.8112" y="65.8272">Converter</text><text fill="#000000" font-family="sans-serif" font-size="14" lengthAdjust="spacing" textLength="74" x="670.3112" y="83.4366">L/h em m&#179;/s</text></g><g id="elem_UC_enviarDadosJSON"><ellipse cx="1008.0894" cy="347.9034" fill="#90EE90" rx="71.5894" ry="27.9034" style="stroke:#228B22;stroke-width:0.5;"/><text fill="#000000" font-family="sans-serif" font-size="14" lengthAdjust="spacing" textLength="85" x="965.5894" y="342.8272">Enviar Dados</text><text fill="#000000" font-family="sans-serif" font-size="14" lengthAdjust="spacing" textLength="45" x="985.5894" y="360.4366">(JSON)</text></g><g id="elem_UC_enviarHTML"><ellipse cx="707.468" cy="347.9034" fill="#90EE90" rx="69.468" ry="27.9034" style="stroke:#228B22;stroke-width:0.5;"/><text fill="#000000" font-family="sans-serif" font-size="14" lengthAdjust="spacing" textLength="82" x="666.468" y="342.8272">Exibir P&#225;gina</text><text fill="#000000" font-family="sans-serif" font-size="14" lengthAdjust="spacing" textLength="47" x="683.968" y="360.4366">(HTML)</text></g><g id="elem_UC_mostrarDataHora"><ellipse cx="1008.1102" cy="789.9034" fill="#90EE90" rx="83.6102" ry="27.9034" style="stroke:#228B22;stroke-width:0.5;"/><text fill="#000000" font-family="sans-serif" font-size="14" lengthAdjust="spacing" textLength="102" x="957.1102" y="784.8272">Exibir Data/Hora</text><text fill="#000000" font-family="sans-serif" font-size="14" lengthAdjust="spacing" textLength="39" x="988.6102" y="802.4366">(RTC)</text></g><g id="elem_UC_processarFormularioHTML"><ellipse cx="410.5685" cy="211.8551" fill="#90EE90" rx="59.5685" ry="40.3551" style="stroke:#228B22;stroke-width:0.5;"/><text fill="#000000" font-family="sans-serif" font-size="14" lengthAdjust="spacing" textLength="64" x="378.5685" y="197.9743">Processar</text><text fill="#000000" font-family="sans-serif" font-size="14" lengthAdjust="spacing" textLength="68" x="376.5685" y="215.5836">Formul&#225;rio</text><text fill="#000000" font-family="sans-serif" font-size="14" lengthAdjust="spacing" textLength="47" x="387.0685" y="233.193">(HTML)</text></g><g id="elem_UC_requisitarLeituras"><ellipse cx="410.5599" cy="898.9034" fill="#90EE90" rx="88.5599" ry="27.9034" style="stroke:#228B22;stroke-width:0.5;"/><text fill="#000000" font-family="sans-serif" font-size="14" lengthAdjust="spacing" textLength="109" x="356.0599" y="893.8272">Requisitar Dados</text><text fill="#000000" font-family="sans-serif" font-size="14" lengthAdjust="spacing" textLength="28" x="396.5599" y="911.4366">(I&#178;C)</text></g><g id="elem_UC_requisitarNTP"><ellipse cx="1008.0754" cy="898.9651" fill="#90EE90" rx="105.0754" ry="27.9651" style="stroke:#228B22;stroke-width:0.5;"/><text fill="#000000" font-family="sans-serif" font-size="14" lengthAdjust="spacing" textLength="132" x="939.0754" y="894.677">Requisitar Data/Hora</text><text fill="#000000" font-family="sans-serif" font-size="14" lengthAdjust="spacing" textLength="37" x="986.5754" y="912.2863">(NTP)</text></g><g id="elem_UC_statusCavitacao"><ellipse cx="707.6396" cy="497.9034" fill="#90EE90" rx="66.6396" ry="27.9034" style="stroke:#228B22;stroke-width:0.5;"/><text fill="#000000" font-family="sans-serif" font-size="14" lengthAdjust="spacing" textLength="78" x="668.6396" y="492.8272">Exibir Status</text><text fill="#000000" font-family="sans-serif" font-size="14" lengthAdjust="spacing" textLength="73" x="671.1396" y="510.4366">(Cavita&#231;&#227;o)</text></g><!--entity EtherCard--><g id="elem_EtherCard"><ellipse cx="707.5" cy="985.6094" fill="#FFA500" rx="8" ry="8" style="stroke:#000000;stroke-width:0.5;"/><path d="M707.5,993.6094 L707.5,1020.6094 M694.5,1001.6094 L720.5,1001.6094 M707.5,1020.6094 L694.5,1035.6094 M707.5,1020.6094 L720.5,1035.6094 " fill="none" style="stroke:#000000;stroke-width:0.5;"/><text fill="#000000" font-family="sans-serif" font-size="14" font-weight="bold" lengthAdjust="spacing" textLength="71" x="672" y="1051.6426">EtherCard</text><text fill="#000000" font-family="sans-serif" font-size="14" font-style="italic" lengthAdjust="spacing" textLength="84" x="665.5" y="974.0332">&#171;ENC28J60&#187;</text></g><!--entity Alarme--><g id="elem_Alarme"><ellipse cx="103" cy="985.6094" fill="#FFA500" rx="8" ry="8" style="stroke:#000000;stroke-width:0.5;"/><path d="M103,993.6094 L103,1020.6094 M90,1001.6094 L116,1001.6094 M103,1020.6094 L90,1035.6094 M103,1020.6094 L116,1035.6094 " fill="none" style="stroke:#000000;stroke-width:0.5;"/><text fill="#000000" font-family="sans-serif" font-size="14" font-weight="bold" lengthAdjust="spacing" textLength="48" x="79" y="1051.6426">Alarme</text><text fill="#000000" font-family="sans-serif" font-size="14" font-style="italic" lengthAdjust="spacing" textLength="59" x="73.5" y="974.0332">&#171;buzzer&#187;</text></g><!--entity SensoresDiversos--><g id="elem_SensoresDiversos"><ellipse cx="103" cy="1115.6094" fill="#FFA500" rx="8" ry="8" style="stroke:#000000;stroke-width:0.5;"/><path d="M103,1123.6094 L103,1150.6094 M90,1131.6094 L116,1131.6094 M103,1150.6094 L90,1165.6094 M103,1150.6094 L116,1165.6094 " fill="none" style="stroke:#000000;stroke-width:0.5;"/><text fill="#000000" font-family="sans-serif" font-size="14" font-weight="bold" lengthAdjust="spacing" textLength="80" x="63" y="1181.6426">Secund&#225;rio</text><text fill="#000000" font-family="sans-serif" font-size="14" font-style="italic" lengthAdjust="spacing" textLength="65" x="70.5" y="1104.0332">&#171;escravo&#187;</text></g><!--entity Serial--><g id="elem_Serial"><ellipse cx="1246.5" cy="659.6094" fill="#FFA500" rx="8" ry="8" style="stroke:#000000;stroke-width:0.5;"/><path d="M1246.5,667.6094 L1246.5,694.6094 M1233.5,675.6094 L1259.5,675.6094 M1246.5,694.6094 L1233.5,709.6094 M1246.5,694.6094 L1259.5,709.6094 " fill="none" style="stroke:#000000;stroke-width:0.5;"/><text fill="#000000" font-family="sans-serif" font-size="14" font-weight="bold" lengthAdjust="spacing" textLength="40" x="1226.5" y="725.6426">Serial</text><text fill="#000000" font-family="sans-serif" font-size="14" font-style="italic" lengthAdjust="spacing" textLength="49" x="1222" y="648.0332">&#171;porta&#187;</text></g><!--reverse link UC_CalcularDados to UC_MostrarDadosLCD--><g id="link_UC_CalcularDados_UC_MostrarDadosLCD"><path d="M129.1769,585.6745 C162.9969,626.1545 229.48,696.19 309,725 C423.09,766.34 784.52,716.3 937.51,692.38 " fill="none" id="UC_CalcularDados-backto-UC_MostrarDadosLCD" style="stroke:#181818;stroke-width:1.0;stroke-dasharray:7.0,7.0;"/><polygon fill="#181818" points="125.33,581.07,128.0307,590.5413,128.5358,584.9071,134.17,585.4121,125.33,581.07" style="stroke:#181818;stroke-width:1.0;"/><text fill="#000000" font-family="sans-serif" font-size="13" lengthAdjust="spacing" textLength="63" x="543.5" y="730.4951">&#171;depende&#187;</text></g><!--link UC_CalcularDados to UC_AtualizarAlarmeCavitacao--><g id="link_UC_CalcularDados_UC_AtualizarAlarmeCavitacao"><path d="M111.66,582.02 C124.94,625.29 156.4,708.04 213,753 C245.45,778.78 283.3973,791.3504 321.4273,798.6404 " fill="none" id="UC_CalcularDados-to-UC_AtualizarAlarmeCavitacao" style="stroke:#181818;stroke-width:1.0;"/><polygon fill="#181818" points="327.32,799.77,319.234,794.1472,322.4094,798.8287,317.7279,802.0041,327.32,799.77" style="stroke:#181818;stroke-width:1.0;"/></g><!--link UC_CalcularDados to UC_calcularDensidadeAgua--><g id="link_UC_CalcularDados_UC_calcularDensidadeAgua"><path d="M161.0264,577.5185 C215.9464,600.1785 291.5833,631.3622 348.1233,654.6822 " fill="none" id="UC_CalcularDados-UC_calcularDensidadeAgua" style="stroke:#181818;stroke-width:1.0;"/><polygon fill="#181818" points="155.48,575.23,162.274,582.3603,160.102,577.1371,165.3253,574.9651,155.48,575.23" style="stroke:#181818;stroke-width:1.0;"/><polygon fill="#181818" points="353.67,656.97,346.8751,649.8405,349.0477,655.0635,343.8247,657.2362,353.67,656.97" style="stroke:#181818;stroke-width:1.0;"/></g><!--link UC_CalcularDados to UC_calcularElevacaoEstimada--><g id="link_UC_CalcularDados_UC_calcularElevacaoEstimada"><path d="M185.481,563.3329 C229.301,568.3529 272.699,573.3274 318.109,578.5274 " fill="none" id="UC_CalcularDados-UC_calcularElevacaoEstimada" style="stroke:#181818;stroke-width:1.0;"/><polygon fill="#181818" points="179.52,562.65,188.0063,567.6483,184.4875,563.2191,188.9168,559.7003,179.52,562.65" style="stroke:#181818;stroke-width:1.0;"/><polygon fill="#181818" points="324.07,579.21,315.5835,574.2121,319.1025,578.6412,314.6734,582.1601,324.07,579.21" style="stroke:#181818;stroke-width:1.0;"/></g><!--link UC_CalcularDados to UC_calcularFatorCavitacao--><g id="link_UC_CalcularDados_UC_calcularFatorCavitacao"><path d="M179.9918,540.0689 C225.0818,531.8089 272.1383,523.1816 319.7183,514.4616 " fill="none" id="UC_CalcularDados-UC_calcularFatorCavitacao" style="stroke:#181818;stroke-width:1.0;"/><polygon fill="#181818" points="174.09,541.15,183.6634,543.4628,179.0082,540.249,182.2219,535.5938,174.09,541.15" style="stroke:#181818;stroke-width:1.0;"/><polygon fill="#181818" points="325.62,513.38,316.0464,511.0679,320.7019,514.2813,317.4885,518.9369,325.62,513.38" style="stroke:#181818;stroke-width:1.0;"/></g><!--link UC_CalcularDados to UC_calcularPotenciaHidraulica--><g id="link_UC_CalcularDados_UC_calcularPotenciaHidraulica"><path d="M108.2543,519.9202 C119.4143,434.1602 156.14,184.21 213,126 C241.34,96.98 277.7301,83.9562 315.8301,77.2762 " fill="none" id="UC_CalcularDados-UC_calcularPotenciaHidraulica" style="stroke:#181818;stroke-width:1.0;"/><polygon fill="#181818" points="107.48,525.87,112.6079,517.4614,108.1252,520.9118,104.6748,516.4291,107.48,525.87" style="stroke:#181818;stroke-width:1.0;"/><polygon fill="#181818" points="321.74,76.24,312.1844,73.8543,316.8151,77.1035,313.566,81.7341,321.74,76.24" style="stroke:#181818;stroke-width:1.0;"/></g><!--link UC_CalcularDados to UC_calcularVazaoEstimada--><g id="link_UC_CalcularDados_UC_calcularVazaoEstimada"><path d="M131.2112,522.4911 C166.9712,482.1711 235.19,410.22 309,361 C323.31,351.45 334.5002,345.4811 350.1002,338.6011 " fill="none" id="UC_CalcularDados-UC_calcularVazaoEstimada" style="stroke:#181818;stroke-width:1.0;"/><polygon fill="#181818" points="127.23,526.98,136.1944,522.9008,130.5477,523.2393,130.2092,517.5925,127.23,526.98" style="stroke:#181818;stroke-width:1.0;"/><polygon fill="#181818" points="355.59,336.18,345.7412,336.1518,351.0152,338.1976,348.9694,343.4716,355.59,336.18" style="stroke:#181818;stroke-width:1.0;"/></g><!--link UC_CalcularDados to UC_requisitarLeituras--><g id="link_UC_CalcularDados_UC_requisitarLeituras"><path d="M108.7,581.96 C118.81,633.96 147.24,746.3 213,813 C247.25,847.74 292.1737,867.6486 333.4737,880.5686 " fill="none" id="UC_CalcularDados-to-UC_requisitarLeituras" style="stroke:#181818;stroke-width:1.0;stroke-dasharray:7.0,7.0;"/><polygon fill="#181818" points="339.2,882.36,331.8048,875.8554,334.4281,880.8672,329.4162,883.4905,339.2,882.36" style="stroke:#181818;stroke-width:1.0;"/><text fill="#000000" font-family="sans-serif" font-size="13" lengthAdjust="spacing" textLength="63" x="214.5" y="809.4951">&#171;depende&#187;</text></g><!--link UC_CalcularDados to UC_processarFormularioHTML--><g id="link_UC_CalcularDados_UC_processarFormularioHTML"><path d="M118.59,526.4 C148.42,471.95 221.08,349.11 309,270 C324.35,256.19 338.2477,247.004 355.7177,237.514 " fill="none" id="UC_CalcularDados-to-UC_processarFormularioHTML" style="stroke:#181818;stroke-width:1.0;stroke-dasharray:7.0,7.0;"/><polygon fill="#181818" points="360.99,234.65,351.1722,235.4311,356.5964,237.0367,354.9909,242.4609,360.99,234.65" style="stroke:#181818;stroke-width:1.0;"/><text fill="#000000" font-family="sans-serif" font-size="13" lengthAdjust="spacing" textLength="63" x="214.5" y="300.4951">&#171;depende&#187;</text></g><!--reverse link UC_calcularFatorCavitacao to UC_statusCavitacao--><g id="link_UC_calcularFatorCavitacao_UC_statusCavitacao"><path d="M518.2,498 C560.76,498 603.12,498 640.95,498 " fill="none" id="UC_calcularFatorCavitacao-backto-UC_statusCavitacao" style="stroke:#181818;stroke-width:1.0;stroke-dasharray:7.0,7.0;"/><polygon fill="#181818" points="512.2,498,521.2,502,517.2,498,521.2,494,512.2,498" style="stroke:#181818;stroke-width:1.0;"/><text fill="#000000" font-family="sans-serif" font-size="13" lengthAdjust="spacing" textLength="63" x="543.5" y="494.4951">&#171;depende&#187;</text></g><!--link UC_calcularPotenciaHidraulica to UC_converterLH_M3S--><g id="link_UC_calcularPotenciaHidraulica_UC_converterLH_M3S"><path d="M500.81,71 C546.77,71 595.7,71 637.23,71 " fill="none" id="UC_calcularPotenciaHidraulica-to-UC_converterLH_M3S" style="stroke:#181818;stroke-width:1.0;stroke-dasharray:7.0,7.0;"/><polygon fill="#181818" points="643.23,71,634.23,67,638.23,71,634.23,75,643.23,71" style="stroke:#181818;stroke-width:1.0;"/><text fill="#000000" font-family="sans-serif" font-size="13" lengthAdjust="spacing" textLength="63" x="543.5" y="67.4951">&#171;depende&#187;</text></g><!--reverse link UC_statusCavitacao to UC_MostrarDadosLCD--><g id="link_UC_statusCavitacao_UC_MostrarDadosLCD"><path d="M751.1154,524.1257 C807.8054,558.8757 909.69,621.34 967.52,656.79 " fill="none" id="UC_statusCavitacao-backto-UC_MostrarDadosLCD" style="stroke:#181818;stroke-width:1.0;stroke-dasharray:7.0,7.0;"/><polygon fill="#181818" points="746,520.99,751.5827,529.1038,750.2629,523.6031,755.7636,522.2832,746,520.99" style="stroke:#181818;stroke-width:1.0;"/><text fill="#000000" font-family="sans-serif" font-size="13" lengthAdjust="spacing" textLength="63" x="808.5" y="559.4951">&#171;depende&#187;</text></g><!--reverse link UC_statusCavitacao to UC_enviarDadosJSON--><g id="link_UC_statusCavitacao_UC_enviarDadosJSON"><path d="M756.3112,473.9761 C812.6512,445.6661 906.25,398.63 963.24,369.99 " fill="none" id="UC_statusCavitacao-backto-UC_enviarDadosJSON" style="stroke:#181818;stroke-width:1.0;stroke-dasharray:7.0,7.0;"/><polygon fill="#181818" points="750.95,476.67,760.7878,476.2032,755.4177,474.4251,757.1959,469.0549,750.95,476.67" style="stroke:#181818;stroke-width:1.0;"/><text fill="#000000" font-family="sans-serif" font-size="13" lengthAdjust="spacing" textLength="63" x="808.5" y="415.4951">&#171;depende&#187;</text></g><!--link UC_processarFormularioHTML to UC_enviarHTML--><g id="link_UC_processarFormularioHTML_UC_enviarHTML"><path d="M460.21,234.46 C516.02,260.18 601.291,299.4984 655.661,324.5584 " fill="none" id="UC_processarFormularioHTML-to-UC_enviarHTML" style="stroke:#181818;stroke-width:1.0;stroke-dasharray:7.0,7.0;"/><polygon fill="#181818" points="661.11,327.07,654.6108,319.67,656.5691,324.977,651.2621,326.9354,661.11,327.07" style="stroke:#181818;stroke-width:1.0;"/><text fill="#000000" font-family="sans-serif" font-size="13" lengthAdjust="spacing" textLength="63" x="543.5" y="272.4951">&#171;depende&#187;</text></g><!--link UC_ResponderRequisicoesWeb to UC_enviarHTML--><g id="link_UC_ResponderRequisicoesWeb_UC_enviarHTML"><path d="M476.3736,394.024 C526.9036,383.924 587.6463,371.7658 638.9363,361.5158 " fill="none" id="UC_ResponderRequisicoesWeb-UC_enviarHTML" style="stroke:#181818;stroke-width:1.0;"/><polygon fill="#181818" points="470.49,395.2,480.0994,397.3584,475.393,394.22,478.5314,389.5136,470.49,395.2" style="stroke:#181818;stroke-width:1.0;"/><polygon fill="#181818" points="644.82,360.34,635.2106,358.1813,639.9169,361.3198,636.7784,366.0262,644.82,360.34" style="stroke:#181818;stroke-width:1.0;"/></g><!--link UC_enviarHTML to UC_enviarDadosJSON--><g id="link_UC_enviarHTML_UC_enviarDadosJSON"><path d="M777.36,348 C825.05,348 882.35,348 930.42,348 " fill="none" id="UC_enviarHTML-to-UC_enviarDadosJSON" style="stroke:#181818;stroke-width:1.0;stroke-dasharray:7.0,7.0;"/><polygon fill="#181818" points="936.42,348,927.42,344,931.42,348,927.42,352,936.42,348" style="stroke:#181818;stroke-width:1.0;"/><text fill="#000000" font-family="sans-serif" font-size="13" lengthAdjust="spacing" textLength="63" x="808.5" y="344.4951">&#171;depende&#187;</text></g><!--link UC_enviarDadosJSON to UC_CalcularDados--><g id="link_UC_enviarDadosJSON_UC_CalcularDados"><path d="M974.54,323.17 C872.25,248.17 549.24,36.17 309,154 C162.57,225.82 119.4453,441.0398 108.2353,519.8198 " fill="none" id="UC_enviarDadosJSON-to-UC_CalcularDados" style="stroke:#181818;stroke-width:1.0;stroke-dasharray:7.0,7.0;"/><polygon fill="#181818" points="107.39,525.76,112.618,517.4133,108.0944,520.8099,104.6978,516.2863,107.39,525.76" style="stroke:#181818;stroke-width:1.0;"/><text fill="#000000" font-family="sans-serif" font-size="13" lengthAdjust="spacing" textLength="63" x="543.5" y="122.4951">&#171;depende&#187;</text></g><!--reverse link UC_mostrarDataHora to UC_MostrarDadosLCD--><g id="link_UC_mostrarDataHora_UC_MostrarDadosLCD"><path d="M1008,755.93 C1008,739.78 1008,725.55 1008,709.35 " fill="none" id="UC_mostrarDataHora-backto-UC_MostrarDadosLCD" style="stroke:#181818;stroke-width:1.0;stroke-dasharray:7.0,7.0;"/><polygon fill="#181818" points="1008,761.93,1012,752.93,1008,756.93,1004,752.93,1008,761.93" style="stroke:#181818;stroke-width:1.0;"/><text fill="#000000" font-family="sans-serif" font-size="13" lengthAdjust="spacing" textLength="63" x="964.5" y="740.9951">&#171;depende&#187;</text></g><!--link UC_mostrarDataHora to UC_requisitarNTP--><g id="link_UC_mostrarDataHora_UC_requisitarNTP"><path d="M1008,818.35 C1008,834.55 1008,848.78 1008,864.93 " fill="none" id="UC_mostrarDataHora-to-UC_requisitarNTP" style="stroke:#181818;stroke-width:1.0;stroke-dasharray:7.0,7.0;"/><polygon fill="#181818" points="1008,870.93,1012,861.93,1008,865.93,1004,861.93,1008,870.93" style="stroke:#181818;stroke-width:1.0;"/><text fill="#000000" font-family="sans-serif" font-size="13" lengthAdjust="spacing" textLength="63" x="964.5" y="849.9951">&#171;depende&#187;</text></g><!--link EtherCard to UC_requisitarNTP--><g id="link_EtherCard_UC_requisitarNTP"><path d="M755.3319,990.0582 C805.8719,971.7682 880.7579,944.6713 939.3279,923.4813 " fill="none" id="EtherCard-UC_requisitarNTP" style="stroke:#181818;stroke-width:1.0;"/><polygon fill="#181818" points="749.69,992.1,759.514,992.7986,754.3916,990.3985,756.7917,985.2761,749.69,992.1" style="stroke:#181818;stroke-width:1.0;"/><polygon fill="#181818" points="944.97,921.44,935.146,920.7405,940.2683,923.141,937.8677,928.2633,944.97,921.44" style="stroke:#181818;stroke-width:1.0;"/><text fill="#000000" font-family="sans-serif" font-size="13" lengthAdjust="spacing" textLength="64" x="808" y="946.4951">&#171;resposta&#187;</text></g><!--reverse link Alarme to UC_AtualizarAlarmeCavitacao--><g id="link_Alarme_UC_AtualizarAlarmeCavitacao"><path d="M138.2991,998.2115 C176.3391,987.3415 237.86,964.91 279,922 C302.14,897.86 285.48,876.77 309,853 C319.69,842.2 333.43,833.76 347.3,827.27 " fill="none" id="Alarme-backto-UC_AtualizarAlarmeCavitacao" style="stroke:#181818;stroke-width:1.0;"/><polygon fill="#181818" points="132.53,999.86,142.2826,1001.2333,137.3376,998.4862,140.0846,993.5412,132.53,999.86" style="stroke:#181818;stroke-width:1.0;"/><text fill="#000000" font-family="sans-serif" font-size="13" lengthAdjust="spacing" textLength="63" x="214.5" y="918.4951">&#171;atualizar&#187;</text></g><!--link UC_ResponderRequisicoesWeb to EtherCard--><g id="link_UC_ResponderRequisicoesWeb_EtherCard"><path d="M474.0978,422.8007 C490.6678,429.5407 501.54,437.27 512,452 C557.57,516.2 515.28,730.95 542,805 C566.64,873.28 620.6174,931.2853 660.7674,968.0953 " fill="none" id="UC_ResponderRequisicoesWeb-EtherCard" style="stroke:#181818;stroke-width:1.0;"/><polygon fill="#181818" points="468.54,420.54,475.3696,427.6362,473.1715,422.4239,478.3838,420.2258,468.54,420.54" style="stroke:#181818;stroke-width:1.0;"/><polygon fill="#181818" points="665.19,972.15,661.2592,963.1196,661.5045,968.7711,655.853,969.0164,665.19,972.15" style="stroke:#181818;stroke-width:1.0;"/><text fill="#000000" font-family="sans-serif" font-size="13" lengthAdjust="spacing" textLength="64" x="543" y="801.4951">&#171;resposta&#187;</text></g><!--link SensoresDiversos to UC_requisitarLeituras--><g id="link_SensoresDiversos_UC_requisitarLeituras"><path d="M147.7332,1102.9326 C208.3832,1055.6826 314.7366,972.8272 371.6066,928.5272 " fill="none" id="SensoresDiversos-UC_requisitarLeituras" style="stroke:#181818;stroke-width:1.0;"/><polygon fill="#181818" points="143,1106.62,152.558,1104.2443,146.9443,1103.5471,147.6415,1097.9334,143,1106.62" style="stroke:#181818;stroke-width:1.0;"/><polygon fill="#181818" points="376.34,924.84,366.7818,927.2152,372.3955,927.9126,371.698,933.5263,376.34,924.84" style="stroke:#181818;stroke-width:1.0;"/><text fill="#000000" font-family="sans-serif" font-size="13" lengthAdjust="spacing" textLength="64" x="214" y="999.4951">&#171;resposta&#187;</text></g><!--link UC_MostrarDadosLCD to Serial--><g id="link_UC_MostrarDadosLCD_Serial"><path d="M1085.13,681 C1132.53,681 1184.31,681 1215.96,681 " fill="none" id="UC_MostrarDadosLCD-to-Serial" style="stroke:#181818;stroke-width:1.0;"/><polygon fill="#181818" points="1221.96,681,1212.96,677,1216.96,681,1212.96,685,1221.96,681" style="stroke:#181818;stroke-width:1.0;"/><text fill="#000000" font-family="sans-serif" font-size="13" lengthAdjust="spacing" textLength="45" x="1146" y="677.4951">&#171;exibir&#187;</text></g><!--SRC=[bLRDRXCn4BxlKrWvjOSc22I4K1GfR5D2bPOgAN29L3cxqyJgnWwsDw2Y7dYKYWCIHn0lqBmO_jjjrhjEGuxppVVDZsScAsu8NM6EbnbBRY15Oe5JzeNGERh6cO0eok1Q8iaG9_E5H2dXa4Z2Q1I9Webm8Xb7toAaVczmSZFdBATfp39bPHpJELY8yHIuDSyovHVTRQla0X8i8A0pqk7VSW1QqpfX78J3xg9MTzORo8K2CK-xdLclXRfTD3YFdxywVVaCzNe82rGw6FT-XlaI2jzPVdiBtFfPn3XD8579REuvOQKgY8JZDNEY4w12ft9Cri054ux62SvAnefnYKj_3KMHxgXgKWQejMOaHHbZguF3bcb4qPGFyTKOn8fHLVKOFkT4a8I1-0GphTJgIz38b3fiytFp5qIhAX3ZBCbLGSVgXOMX5HPaJ5DwaBhK3ptg6HEIE-OeFZPaPokvokxJ-ZB76Rd5tFOnnciYSOAP3Swev4n7jwYIi0ug-H_CbqgAv5MJIOfJwCzpx1LHG4ffyrt18Or11ckTna18iiIf9sDGauFI0USIaZh1QlIzkWgXcC4rIGXGkMTj5qmzOqBmaAGSvnb9lCmKllcb7PISzjdS6wUGt4Ty6wfHGK_KnwYQ10byDBmwUp4f7ipQfdJKMI1OekN3duu_PK3Nn4tAwUJzkM4EZAsS56q_RAGDByz6bl6Lp8YgU7C_9zJKgn2VioocKkAXkZFRH6thQAEYZYzZdxdYB04XrFinljGT8QmCVL5WKsfHi_E15BZTDudv28ZCERQBDIxDPT7l7dx7OVRvvKMT-5Y2Wdska5ZceZfwhlY9WMepf_YrAz1jjvls-xM-LIciz5LHrwg9UNJKsxNYZS4Sft6Nzo7uYxiFfxgX-p3gQxWFgx9jJOHsknUOc3swxSYXkQqhM970cNAlxezGOnuxZfDBohyLZJ9-hFyPl03NlpIDt537NEvRPoVKmz3_RZ40ZnBMVqko4kI9H7qdnwsEGIX7_n9szsbkYEpFgRvDzS3b9rJPY0O6rxqJvej7V-pP6w49kqw7OU82rDHevpFqjdAfXutypxA6VAkRM64tj57JxRURzGTxTPNtFm00]--></g></svg>