<svg xmlns="http://www.w3.org/2000/svg" xmlns:xlink="http://www.w3.org/1999/xlink" contentStyleType="text/css" height="803px" preserveAspectRatio="none" style="width:720px;height:803px;background:#FFFFFF;" version="1.1" viewBox="0 0 720 803" width="720px" zoomAndPan="magnify"><defs/><g><!--cluster void setup()--><g id="cluster_void setup()"><rect fill="none" height="454.5" rx="2.5" ry="2.5" style="stroke:#181818;stroke-width:1.0;" width="464" x="97.5" y="166.5762"/><text fill="#000000" font-family="sans-serif" font-size="14" font-weight="bold" lengthAdjust="spacing" textLength="85" x="287" y="183.1094">void setup()</text></g><g id="elem_UC_InicializarLCD"><ellipse cx="260.2904" cy="403.9796" fill="#90EE90" rx="51.7904" ry="27.9034" style="stroke:#228B22;stroke-width:0.5;"/><text fill="#000000" font-family="sans-serif" font-size="14" lengthAdjust="spacing" textLength="57" x="231.7904" y="398.9034">Inicializar</text><text fill="#000000" font-family="sans-serif" font-size="14" lengthAdjust="spacing" textLength="28" x="246.2904" y="416.5128">LCD</text></g><g id="elem_UC_ConfigurarPortas"><ellipse cx="413.4325" cy="250.4796" fill="#90EE90" rx="65.9325" ry="27.9034" style="stroke:#228B22;stroke-width:0.5;"/><text fill="#000000" font-family="sans-serif" font-size="14" lengthAdjust="spacing" textLength="67" x="379.9325" y="245.4034">Configurar</text><text fill="#000000" font-family="sans-serif" font-size="14" lengthAdjust="spacing" textLength="77" x="374.9325" y="263.0128">Portas (E/S)</text></g><g id="elem_UC_InicializarSerial"><ellipse cx="260.2904" cy="250.4796" fill="#90EE90" rx="51.7904" ry="27.9034" style="stroke:#228B22;stroke-width:0.5;"/><text fill="#000000" font-family="sans-serif" font-size="14" lengthAdjust="spacing" textLength="57" x="231.7904" y="245.4034">Inicializar</text><text fill="#000000" font-family="sans-serif" font-size="14" lengthAdjust="spacing" textLength="36" x="242.2904" y="263.0128">Serial</text></g><g id="elem_UC_InicializarI2C"><ellipse cx="165.2904" cy="576.9796" fill="#90EE90" rx="51.7904" ry="27.9034" style="stroke:#228B22;stroke-width:0.5;"/><text fill="#000000" font-family="sans-serif" font-size="14" lengthAdjust="spacing" textLength="57" x="136.7904" y="571.9034">Inicializar</text><text fill="#000000" font-family="sans-serif" font-size="14" lengthAdjust="spacing" textLength="21" x="154.7904" y="589.5128">I2C</text></g><g id="elem_UC_InicializarRede"><ellipse cx="329.5391" cy="576.9796" fill="#90EE90" rx="76.5391" ry="27.9034" style="stroke:#228B22;stroke-width:0.5;"/><text fill="#000000" font-family="sans-serif" font-size="14" lengthAdjust="spacing" textLength="57" x="301.0391" y="571.9034">Inicializar</text><text fill="#000000" font-family="sans-serif" font-size="14" lengthAdjust="spacing" textLength="92" x="283.5391" y="589.5128">Rede Ethernet</text></g><g id="elem_UC_InicializarRTC"><ellipse cx="493.2904" cy="576.9796" fill="#90EE90" rx="51.7904" ry="27.9034" style="stroke:#228B22;stroke-width:0.5;"/><text fill="#000000" font-family="sans-serif" font-size="14" lengthAdjust="spacing" textLength="57" x="464.7904" y="571.9034">Inicializar</text><text fill="#000000" font-family="sans-serif" font-size="14" lengthAdjust="spacing" textLength="29" x="478.7904" y="589.5128">RTC</text></g><g id="elem_UC_LimparDisplay"><ellipse cx="478.6396" cy="403.9796" fill="#90EE90" rx="66.6396" ry="27.9034" style="stroke:#228B22;stroke-width:0.5;"/><text fill="#000000" font-family="sans-serif" font-size="14" lengthAdjust="spacing" textLength="43" x="457.1396" y="398.9034">Limpar</text><text fill="#000000" font-family="sans-serif" font-size="14" lengthAdjust="spacing" textLength="78" x="439.6396" y="416.5128">Display LCD</text></g><!--entity Serial--><g id="elem_Serial"><ellipse cx="260.5" cy="33.6855" fill="#FFA500" rx="8" ry="8" style="stroke:#000000;stroke-width:0.5;"/><path d="M260.5,41.6855 L260.5,68.6855 M247.5,49.6855 L273.5,49.6855 M260.5,68.6855 L247.5,83.6855 M260.5,68.6855 L273.5,83.6855 " fill="none" style="stroke:#000000;stroke-width:0.5;"/><text fill="#000000" font-family="sans-serif" font-size="14" font-weight="bold" lengthAdjust="spacing" textLength="40" x="240.5" y="99.7188">Serial</text><text fill="#000000" font-family="sans-serif" font-size="14" font-style="italic" lengthAdjust="spacing" textLength="49" x="236" y="22.1094">&#171;porta&#187;</text></g><!--entity ProtocoloI2C--><g id="elem_ProtocoloI2C"><ellipse cx="43.5" cy="382.6855" fill="#FFA500" rx="8" ry="8" style="stroke:#000000;stroke-width:0.5;"/><path d="M43.5,390.6855 L43.5,417.6855 M30.5,398.6855 L56.5,398.6855 M43.5,417.6855 L30.5,432.6855 M43.5,417.6855 L56.5,432.6855 " fill="none" style="stroke:#000000;stroke-width:0.5;"/><text fill="#000000" font-family="sans-serif" font-size="14" font-weight="bold" lengthAdjust="spacing" textLength="19" x="34" y="448.7188">I&#178;C</text><text fill="#000000" font-family="sans-serif" font-size="14" font-style="italic" lengthAdjust="spacing" textLength="75" x="6" y="371.1094">&#171;protocolo&#187;</text></g><!--entity ProtocoloEthernet--><g id="elem_ProtocoloEthernet"><ellipse cx="329.5" cy="728.6855" fill="#FFA500" rx="8" ry="8" style="stroke:#000000;stroke-width:0.5;"/><path d="M329.5,736.6855 L329.5,763.6855 M316.5,744.6855 L342.5,744.6855 M329.5,763.6855 L316.5,778.6855 M329.5,763.6855 L342.5,778.6855 " fill="none" style="stroke:#000000;stroke-width:0.5;"/><text fill="#000000" font-family="sans-serif" font-size="14" font-weight="bold" lengthAdjust="spacing" textLength="61" x="299" y="794.7188">Ethernet</text><text fill="#000000" font-family="sans-serif" font-size="14" font-style="italic" lengthAdjust="spacing" textLength="84" x="287.5" y="717.1094">&#171;ENC28J60&#187;</text></g><!--entity ModuloRTC--><g id="elem_ModuloRTC"><ellipse cx="679.5" cy="555.6855" fill="#FFA500" rx="8" ry="8" style="stroke:#000000;stroke-width:0.5;"/><path d="M679.5,563.6855 L679.5,590.6855 M666.5,571.6855 L692.5,571.6855 M679.5,590.6855 L666.5,605.6855 M679.5,590.6855 L692.5,605.6855 " fill="none" style="stroke:#000000;stroke-width:0.5;"/><text fill="#000000" font-family="sans-serif" font-size="14" font-weight="bold" lengthAdjust="spacing" textLength="28" x="665.5" y="621.7188">RTC</text><text fill="#000000" font-family="sans-serif" font-size="14" font-style="italic" lengthAdjust="spacing" textLength="67" x="646" y="544.1094">&#171;DS1307&#187;</text></g><!--entity AlarmeCavitacao--><g id="elem_AlarmeCavitacao"><ellipse cx="413.5" cy="33.6855" fill="#FFA500" rx="8" ry="8" style="stroke:#000000;stroke-width:0.5;"/><path d="M413.5,41.6855 L413.5,68.6855 M400.5,49.6855 L426.5,49.6855 M413.5,68.6855 L400.5,83.6855 M413.5,68.6855 L426.5,83.6855 " fill="none" style="stroke:#000000;stroke-width:0.5;"/><text fill="#000000" font-family="sans-serif" font-size="14" font-weight="bold" lengthAdjust="spacing" textLength="48" x="389.5" y="99.7188">Alarme</text><text fill="#000000" font-family="sans-serif" font-size="14" font-style="italic" lengthAdjust="spacing" textLength="59" x="384" y="22.1094">&#171;buzzer&#187;</text></g><!--entity LCD--><g id="elem_LCD"><ellipse cx="597.5" cy="382.6855" fill="#FFA500" rx="8" ry="8" style="stroke:#000000;stroke-width:0.5;"/><path d="M597.5,390.6855 L597.5,417.6855 M584.5,398.6855 L610.5,398.6855 M597.5,417.6855 L584.5,432.6855 M597.5,417.6855 L610.5,432.6855 " fill="none" style="stroke:#000000;stroke-width:0.5;"/><text fill="#000000" font-family="sans-serif" font-size="14" font-weight="bold" lengthAdjust="spacing" textLength="28" x="583.5" y="448.7188">LCD</text><text fill="#000000" font-family="sans-serif" font-size="14" font-style="italic" lengthAdjust="spacing" textLength="35" x="580" y="371.1094">&#171;I&#178;C&#187;</text></g><!--link UC_ConfigurarPortas to UC_InicializarSerial--><g id="link_UC_ConfigurarPortas_UC_InicializarSerial"><path d="M347.41,250.5762 C335.87,250.5762 330.33,250.5762 318.79,250.5762 " fill="none" id="UC_ConfigurarPortas-to-UC_InicializarSerial" style="stroke:#181818;stroke-width:1.0;"/><polygon fill="#181818" points="312.79,250.5762,321.79,254.5762,317.79,250.5762,321.79,246.5762,312.79,250.5762" style="stroke:#181818;stroke-width:1.0;"/></g><!--link UC_InicializarSerial to UC_InicializarLCD--><g id="link_UC_InicializarSerial_UC_InicializarLCD"><path d="M260.5,278.6662 C260.5,306.1562 260.5,342.4762 260.5,369.9662 " fill="none" id="UC_InicializarSerial-to-UC_InicializarLCD" style="stroke:#181818;stroke-width:1.0;"/><polygon fill="#181818" points="260.5,375.9662,264.5,366.9662,260.5,370.9662,256.5,366.9662,260.5,375.9662" style="stroke:#181818;stroke-width:1.0;"/></g><!--link UC_InicializarLCD to UC_InicializarI2C--><g id="link_UC_InicializarLCD_UC_InicializarI2C"><path d="M246.07,431.0462 C228.16,463.2762 200.7239,512.6812 182.8239,544.9012 " fill="none" id="UC_InicializarLCD-to-UC_InicializarI2C" style="stroke:#181818;stroke-width:1.0;stroke-dasharray:7.0,7.0;"/><polygon fill="#181818" points="179.91,550.1462,187.7774,544.2213,182.3382,545.7754,180.7842,540.3362,179.91,550.1462" style="stroke:#181818;stroke-width:1.0;"/><text fill="#000000" font-family="sans-serif" font-size="13" lengthAdjust="spacing" textLength="63" x="216.5" y="496.0713">&#171;depende&#187;</text></g><!--link UC_InicializarLCD to UC_InicializarRede--><g id="link_UC_InicializarLCD_UC_InicializarRede"><path d="M271.28,431.7962 C284.21,463.8262 303.4955,511.6218 316.4355,543.7018 " fill="none" id="UC_InicializarLCD-to-UC_InicializarRede" style="stroke:#181818;stroke-width:1.0;"/><polygon fill="#181818" points="318.68,549.2662,319.0229,539.4233,316.8096,544.6292,311.6037,542.4159,318.68,549.2662" style="stroke:#181818;stroke-width:1.0;"/></g><!--link UC_InicializarRede to UC_InicializarRTC--><g id="link_UC_InicializarRede_UC_InicializarRTC"><path d="M406.05,577.0762 C417.78,577.0762 423.51,577.0762 435.24,577.0762 " fill="none" id="UC_InicializarRede-to-UC_InicializarRTC" style="stroke:#181818;stroke-width:1.0;"/><polygon fill="#181818" points="441.24,577.0762,432.24,573.0762,436.24,577.0762,432.24,581.0762,441.24,577.0762" style="stroke:#181818;stroke-width:1.0;"/></g><!--reverse link UC_LimparDisplay to UC_InicializarRTC--><g id="link_UC_LimparDisplay_UC_InicializarRTC"><path d="M481.4043,438.1532 C484.2043,470.0732 488.3,516.8362 491.11,548.8262 " fill="none" id="UC_LimparDisplay-backto-UC_InicializarRTC" style="stroke:#181818;stroke-width:1.0;"/><polygon fill="#181818" points="480.88,432.1762,477.6818,441.4913,481.3169,437.157,485.6512,440.7922,480.88,432.1762" style="stroke:#181818;stroke-width:1.0;"/></g><!--reverse link AlarmeCavitacao to UC_ConfigurarPortas--><g id="link_AlarmeCavitacao_UC_ConfigurarPortas"><path d="M413.5,108.9162 C413.5,146.3862 413.5,191.6062 413.5,222.5462 " fill="none" id="AlarmeCavitacao-backto-UC_ConfigurarPortas" style="stroke:#181818;stroke-width:1.0;"/><polygon fill="#181818" points="413.5,102.9162,409.5,111.9162,413.5,107.9162,417.5,111.9162,413.5,102.9162" style="stroke:#181818;stroke-width:1.0;"/><text fill="#000000" font-family="sans-serif" font-size="13" lengthAdjust="spacing" textLength="48" x="414.5" y="147.0713">&#171;definir&#187;</text></g><!--reverse link UC_LimparDisplay to LCD--><g id="link_UC_LimparDisplay_LCD"><path d="M551.44,404.0762 C562.83,404.0762 568.21,404.0762 579.6,404.0762 " fill="none" id="UC_LimparDisplay-backto-LCD" style="stroke:#181818;stroke-width:1.0;"/><polygon fill="#181818" points="545.44,404.0762,554.44,408.0762,550.44,404.0762,554.44,400.0762,545.44,404.0762" style="stroke:#181818;stroke-width:1.0;"/></g><!--link UC_LimparDisplay to UC_InicializarLCD--><g id="link_UC_LimparDisplay_UC_InicializarLCD"><path d="M411.83,404.0762 C379.99,404.0762 348.44,404.0762 318.72,404.0762 " fill="none" id="UC_LimparDisplay-to-UC_InicializarLCD" style="stroke:#181818;stroke-width:1.0;stroke-dasharray:7.0,7.0;"/><polygon fill="#181818" points="312.72,404.0762,321.72,408.0762,317.72,404.0762,321.72,400.0762,312.72,404.0762" style="stroke:#181818;stroke-width:1.0;"/><text fill="#000000" font-family="sans-serif" font-size="13" lengthAdjust="spacing" textLength="63" x="330.75" y="397.5713">&#171;depende&#187;</text></g><!--reverse link LCD to UC_InicializarLCD--><g id="link_LCD_UC_InicializarLCD"><path d="M575.9717,370.3604 C570.7717,363.6004 568.3,361.6562 561.5,356.5762 C510.21,318.2462 483.78,307.7062 421.5,322.5762 C373.66,333.9962 323.94,362.0662 292.65,382.0562 " fill="none" id="LCD-backto-UC_InicializarLCD" style="stroke:#181818;stroke-width:1.0;"/><polygon fill="#181818" points="579.63,375.1162,577.3131,365.5437,576.5814,371.1531,570.9721,370.4214,579.63,375.1162" style="stroke:#181818;stroke-width:1.0;"/><text fill="#000000" font-family="sans-serif" font-size="13" lengthAdjust="spacing" textLength="48" x="422.5" y="323.0713">&#171;iniciar&#187;</text></g><!--link Serial to UC_InicializarSerial--><g id="link_Serial_UC_InicializarSerial"><path d="M260.5,108.9162 C260.5,146.3862 260.5,185.6062 260.5,216.5462 " fill="none" id="Serial-UC_InicializarSerial" style="stroke:#181818;stroke-width:1.0;"/><polygon fill="#181818" points="260.5,102.9162,256.5,111.9162,260.5,107.9162,264.5,111.9162,260.5,102.9162" style="stroke:#181818;stroke-width:1.0;"/><polygon fill="#181818" points="260.5,222.5462,264.5,213.5462,260.5,217.5462,256.5,213.5462,260.5,222.5462" style="stroke:#181818;stroke-width:1.0;"/><text fill="#000000" font-family="sans-serif" font-size="13" lengthAdjust="spacing" textLength="48" x="261.5" y="147.0713">&#171;iniciar&#187;</text></g><!--link ProtocoloI2C to UC_InicializarI2C--><g id="link_ProtocoloI2C_UC_InicializarI2C"><path d="M80.3241,456.691 C103.0341,488.531 125.2861,519.7012 143.8361,545.7112 " fill="none" id="ProtocoloI2C-UC_InicializarI2C" style="stroke:#181818;stroke-width:1.0;"/><polygon fill="#181818" points="76.84,451.8062,78.8096,461.4561,79.7434,455.8768,85.3227,456.8106,76.84,451.8062" style="stroke:#181818;stroke-width:1.0;"/><polygon fill="#181818" points="147.32,550.5962,145.3508,540.9462,144.4168,546.5254,138.8376,545.5913,147.32,550.5962" style="stroke:#181818;stroke-width:1.0;"/><text fill="#000000" font-family="sans-serif" font-size="13" lengthAdjust="spacing" textLength="64" x="108.5" y="496.0713">&#171;resposta&#187;</text></g><!--link UC_InicializarRede to ProtocoloEthernet--><g id="link_UC_InicializarRede_ProtocoloEthernet"><path d="M329.5,611.1762 C329.5,637.2562 329.5,665.2362 329.5,696.4462 " fill="none" id="UC_InicializarRede-ProtocoloEthernet" style="stroke:#181818;stroke-width:1.0;"/><polygon fill="#181818" points="329.5,605.1762,325.5,614.1762,329.5,610.1762,333.5,614.1762,329.5,605.1762" style="stroke:#181818;stroke-width:1.0;"/><polygon fill="#181818" points="329.5,702.4462,333.5,693.4462,329.5,697.4462,325.5,693.4462,329.5,702.4462" style="stroke:#181818;stroke-width:1.0;"/><text fill="#000000" font-family="sans-serif" font-size="13" lengthAdjust="spacing" textLength="64" x="330.5" y="669.0713">&#171;resposta&#187;</text></g><!--link ModuloRTC to UC_InicializarRTC--><g id="link_ModuloRTC_UC_InicializarRTC"><path d="M639.74,577.0762 C611.86,577.0762 583.83,577.0762 551.81,577.0762 " fill="none" id="ModuloRTC-UC_InicializarRTC" style="stroke:#181818;stroke-width:1.0;"/><polygon fill="#181818" points="645.74,577.0762,636.74,573.0762,640.74,577.0762,636.74,581.0762,645.74,577.0762" style="stroke:#181818;stroke-width:1.0;"/><polygon fill="#181818" points="545.81,577.0762,554.81,581.0762,550.81,577.0762,554.81,573.0762,545.81,577.0762" style="stroke:#181818;stroke-width:1.0;"/><text fill="#000000" font-family="sans-serif" font-size="13" lengthAdjust="spacing" textLength="64" x="563.75" y="570.5713">&#171;resposta&#187;</text></g><!--SRC=[VPJTZjCm48Nl_HHMhdOlqbqM2H2A8a5QK551g-roLmcvoRIrcdeYsrb44I_58-oJCN5-sgqTUjSpvvkfpxWsUwageSMXn7mF1JSxKU1FgRPy8qe3Z5cik4M-Hclnm0kf8RSI5MEc9xd8BMh-ct7wV1JvVgknLaM69QceXTf2Mq9TW6xbTKa-zkUyIsqW5mP6-YpaTcS_Qm3bzVg46anNeuvHiawNeAKeavjr6l4auHLgAtYQSc5uMtAk-VFVxEJHQ36dXftllly-lykSUsPte1NOWPXzo-xUVNbpUmdqHaSzF9v6J9UlNj- -xUnViQXBfBApVIY5Fi3WNDV78-ZEsTOoyIIjo0Kw_oAR3kRc69sLPCQQ3L7e9V3e2IMj56nTNLr7Bja-vU_PZxcIEKKXZq8Jr-3HcRHI94OlYGpLHcvhBVHzawXnp4bSgKw-cjqihwFHQUqA_86jFixH9do8n77Y0Ghm4QVsM_eF_1WOH-85iP07ki1JQQfI_790gwnKhxaWwMQ64epJO3Wic5ZikPk5-wkSJD90TE-Ror901OgEdwOi0Fe3cgnO85JVI3VPIoE9uu2DNTpetkQ5q_tYZLIo-JE4-lCkWPVw992JT_v6I-8netIQ6zkbdyGZo_A0yxSZX0tRe8UhGkFUfb383lNU5HyTtX8Y0dlnWNy0]--></g></svg>