<svg xmlns="http://www.w3.org/2000/svg" xmlns:xlink="http://www.w3.org/1999/xlink" contentStyleType="text/css" height="2446px" preserveAspectRatio="none" style="width:1354px;height:2446px;background:#FFFFFF;" version="1.1" viewBox="0 0 1354 2446" width="1354px" zoomAndPan="magnify"><defs/><g><rect fill="#D3D3D3" height="462.3281" style="stroke:#181818;stroke-width:1.0;" width="10" x="84" y="193.2734"/><rect fill="#A9A9A9" height="123.7578" style="stroke:#181818;stroke-width:1.0;" width="10" x="89" y="394.0859"/><rect fill="#D3D3D3" height="30.3516" style="stroke:#181818;stroke-width:1.0;" width="10" x="84" y="788.3594"/><rect fill="#D3D3D3" height="136.4063" style="stroke:#181818;stroke-width:1.0;" width="10" x="84" y="890.7656"/><rect fill="#A9A9A9" height="104.0547" style="stroke:#181818;stroke-width:1.0;" width="10" x="84" y="1089.7109"/><rect fill="#D3D3D3" height="83.0547" style="stroke:#181818;stroke-width:1.0;" width="10" x="84" y="1272.8203"/><rect fill="#D3D3D3" height="30.3516" style="stroke:#181818;stroke-width:1.0;" width="10" x="84" y="1425.4141"/><rect fill="#D3D3D3" height="219.8125" style="stroke:#181818;stroke-width:1.0;" width="10" x="84" y="1579.1719"/><rect fill="#A9A9A9" height="90.4063" style="stroke:#181818;stroke-width:1.0;" width="10" x="89" y="1708.5781"/><rect fill="#D3D3D3" height="376.5703" style="stroke:#181818;stroke-width:1.0;" width="10" x="84" y="1953.0938"/><rect fill="#A9A9A9" height="254.1641" style="stroke:#181818;stroke-width:1.0;" width="10" x="89" y="2060.5"/><rect fill="#808080" height="30.3516" style="stroke:#181818;stroke-width:1.0;" width="10" x="94" y="2284.3125"/><rect fill="#FFB6C1" height="30.3516" style="stroke:#181818;stroke-width:1.0;" width="10" x="450" y="193.2734"/><rect fill="#FFB6C1" height="30.3516" style="stroke:#181818;stroke-width:1.0;" width="10" x="450" y="625.25"/><rect fill="#FFB6C1" height="30.3516" style="stroke:#181818;stroke-width:1.0;" width="10" x="450" y="2151.5547"/><rect fill="#E0FFFF" height="77.0547" style="stroke:#181818;stroke-width:1.0;" width="10" x="541" y="270.3281"/><rect fill="#E0FFFF" height="77.0547" style="stroke:#181818;stroke-width:1.0;" width="10" x="541" y="2237.6094"/><rect fill="#FFFFE0" height="123.7578" style="stroke:#181818;stroke-width:1.0;" width="10" x="635.5" y="394.0859"/><rect fill="#FFFFE0" height="303" style="stroke:#181818;stroke-width:1.0;" width="10" x="635.5" y="890.7656"/><rect fill="#FFFF00" height="171.5938" style="stroke:#181818;stroke-width:1.0;" width="10" x="640.5" y="954.4688"/><rect fill="#90EE90" height="77.0547" style="stroke:#181818;stroke-width:1.0;" width="10" x="871.5" y="440.7891"/><rect fill="#90EE90" height="182.9453" style="stroke:#181818;stroke-width:1.0;" width="10" x="871.5" y="1272.8203"/><rect fill="#ADD8E6" height="30.3516" style="stroke:#181818;stroke-width:1.0;" width="10" x="960" y="487.4922"/><rect fill="#ADD8E6" height="30.3516" style="stroke:#181818;stroke-width:1.0;" width="10" x="960" y="788.3594"/><rect fill="#ADD8E6" height="30.3516" style="stroke:#181818;stroke-width:1.0;" width="10" x="960" y="1579.1719"/><rect fill="#ADD8E6" height="107.4063" style="stroke:#181818;stroke-width:1.0;" width="10" x="960" y="1953.0938"/><rect fill="#D3D3D3" height="30.3516" style="stroke:#181818;stroke-width:1.0;" width="10" x="1280" y="564.5469"/><rect fill="#D3D3D3" height="30.3516" style="stroke:#181818;stroke-width:1.0;" width="10" x="1280" y="1999.7969"/><rect fill="none" height="1614.7109" style="stroke:#000000;stroke-width:1.5;" width="1327" x="10" y="714.9531"/><rect fill="none" height="368.0547" style="stroke:#000000;stroke-width:1.5;" width="856.5" x="20" y="833.7109"/><rect fill="none" height="92.0547" style="stroke:#000000;stroke-width:1.5;" width="757.5" x="30" y="905.7656"/><rect fill="none" height="248" style="stroke:#000000;stroke-width:1.5;" width="894.5" x="30" y="1215.7656"/><rect fill="none" height="336.2188" style="stroke:#000000;stroke-width:1.5;" width="985.5" x="30" y="1477.7656"/><rect fill="none" height="125.7578" style="stroke:#000000;stroke-width:1.5;" width="567.5" x="30" y="2196.9063"/><line style="stroke:#181818;stroke-width:0.5;stroke-dasharray:5.0,5.0;" x1="89" x2="89" y1="100.2188" y2="2346.6641"/><line style="stroke:#181818;stroke-width:0.5;stroke-dasharray:5.0,5.0;" x1="454.5" x2="454.5" y1="100.2188" y2="2346.6641"/><line style="stroke:#181818;stroke-width:0.5;stroke-dasharray:5.0,5.0;" x1="545.5" x2="545.5" y1="100.2188" y2="2346.6641"/><line style="stroke:#181818;stroke-width:0.5;stroke-dasharray:5.0,5.0;" x1="640.5" x2="640.5" y1="100.2188" y2="2346.6641"/><line style="stroke:#181818;stroke-width:0.5;stroke-dasharray:5.0,5.0;" x1="876.5" x2="876.5" y1="100.2188" y2="2346.6641"/><line style="stroke:#181818;stroke-width:0.5;stroke-dasharray:5.0,5.0;" x1="964.5" x2="964.5" y1="100.2188" y2="2346.6641"/><line style="stroke:#181818;stroke-width:0.5;stroke-dasharray:5.0,5.0;" x1="1285" x2="1285" y1="100.2188" y2="2346.6641"/><text fill="#000000" font-family="sans-serif" font-size="14" font-weight="bold" lengthAdjust="spacing" textLength="92" x="40" y="79.5332">SECUND&#193;RIO</text><text fill="#000000" font-family="sans-serif" font-size="14" lengthAdjust="spacing" textLength="60" x="56" y="97.1426">(escravo)</text><ellipse cx="89" cy="13.5" fill="#E2E2F0" rx="8" ry="8" style="stroke:#181818;stroke-width:0.5;"/><path d="M89,21.5 L89,48.5 M76,29.5 L102,29.5 M89,48.5 L76,63.5 M89,48.5 L102,63.5 " fill="none" style="stroke:#181818;stroke-width:0.5;"/><text fill="#000000" font-family="sans-serif" font-size="14" font-weight="bold" lengthAdjust="spacing" textLength="92" x="40" y="2360.1973">SECUND&#193;RIO</text><text fill="#000000" font-family="sans-serif" font-size="14" lengthAdjust="spacing" textLength="60" x="56" y="2377.8066">(escravo)</text><ellipse cx="89" cy="2389.3828" fill="#E2E2F0" rx="8" ry="8" style="stroke:#181818;stroke-width:0.5;"/><path d="M89,2397.3828 L89,2424.3828 M76,2405.3828 L102,2405.3828 M89,2424.3828 L76,2439.3828 M89,2424.3828 L102,2439.3828 " fill="none" style="stroke:#181818;stroke-width:0.5;"/><rect fill="#FFB6C1" height="49.2188" rx="2.5" ry="2.5" style="stroke:#181818;stroke-width:0.5;" width="79" x="415.5" y="50"/><text fill="#000000" font-family="sans-serif" font-size="14" font-weight="bold" lengthAdjust="spacing" textLength="40" x="435" y="71.5332">Serial</text><text fill="#000000" font-family="sans-serif" font-size="14" lengthAdjust="spacing" textLength="65" x="422.5" y="89.1426">(COMMxx)</text><rect fill="#FFB6C1" height="49.2188" rx="2.5" ry="2.5" style="stroke:#181818;stroke-width:0.5;" width="79" x="415.5" y="2345.6641"/><text fill="#000000" font-family="sans-serif" font-size="14" font-weight="bold" lengthAdjust="spacing" textLength="40" x="435" y="2367.1973">Serial</text><text fill="#000000" font-family="sans-serif" font-size="14" lengthAdjust="spacing" textLength="65" x="422.5" y="2384.8066">(COMMxx)</text><rect fill="#E0FFFF" height="49.2188" rx="2.5" ry="2.5" style="stroke:#181818;stroke-width:0.5;" width="83" x="504.5" y="50"/><text fill="#000000" font-family="sans-serif" font-size="14" font-weight="bold" lengthAdjust="spacing" textLength="19" x="536.5" y="71.5332">I&#178;C</text><text fill="#000000" font-family="sans-serif" font-size="14" lengthAdjust="spacing" textLength="69" x="511.5" y="89.1426">(protocolo)</text><rect fill="#E0FFFF" height="49.2188" rx="2.5" ry="2.5" style="stroke:#181818;stroke-width:0.5;" width="83" x="504.5" y="2345.6641"/><text fill="#000000" font-family="sans-serif" font-size="14" font-weight="bold" lengthAdjust="spacing" textLength="19" x="536.5" y="2367.1973">I&#178;C</text><text fill="#000000" font-family="sans-serif" font-size="14" lengthAdjust="spacing" textLength="69" x="511.5" y="2384.8066">(protocolo)</text><rect fill="#FFFFE0" height="49.2188" rx="2.5" ry="2.5" style="stroke:#181818;stroke-width:0.5;" width="86" x="597.5" y="50"/><text fill="#000000" font-family="sans-serif" font-size="14" font-weight="bold" lengthAdjust="spacing" textLength="48" x="616.5" y="71.5332">Bomba</text><text fill="#000000" font-family="sans-serif" font-size="14" lengthAdjust="spacing" textLength="72" x="604.5" y="89.1426">(submersa)</text><rect fill="#FFFFE0" height="49.2188" rx="2.5" ry="2.5" style="stroke:#181818;stroke-width:0.5;" width="86" x="597.5" y="2345.6641"/><text fill="#000000" font-family="sans-serif" font-size="14" font-weight="bold" lengthAdjust="spacing" textLength="48" x="616.5" y="2367.1973">Bomba</text><text fill="#000000" font-family="sans-serif" font-size="14" lengthAdjust="spacing" textLength="72" x="604.5" y="2384.8066">(submersa)</text><rect fill="#90EE90" height="49.2188" rx="2.5" ry="2.5" style="stroke:#181818;stroke-width:0.5;" width="76" x="838.5" y="50"/><text fill="#000000" font-family="sans-serif" font-size="14" font-weight="bold" lengthAdjust="spacing" textLength="48" x="852.5" y="71.5332">Bomba</text><text fill="#000000" font-family="sans-serif" font-size="14" lengthAdjust="spacing" textLength="62" x="845.5" y="89.1426">(superior)</text><rect fill="#90EE90" height="49.2188" rx="2.5" ry="2.5" style="stroke:#181818;stroke-width:0.5;" width="76" x="838.5" y="2345.6641"/><text fill="#000000" font-family="sans-serif" font-size="14" font-weight="bold" lengthAdjust="spacing" textLength="48" x="852.5" y="2367.1973">Bomba</text><text fill="#000000" font-family="sans-serif" font-size="14" lengthAdjust="spacing" textLength="62" x="845.5" y="2384.8066">(superior)</text><rect fill="#ADD8E6" height="49.2188" rx="2.5" ry="2.5" style="stroke:#181818;stroke-width:0.5;" width="81" x="924.5" y="50"/><text fill="#000000" font-family="sans-serif" font-size="14" font-weight="bold" lengthAdjust="spacing" textLength="67" x="931.5" y="71.5332">Sensores</text><text fill="#000000" font-family="sans-serif" font-size="14" lengthAdjust="spacing" textLength="63" x="933.5" y="89.1426">(diversos)</text><rect fill="#ADD8E6" height="49.2188" rx="2.5" ry="2.5" style="stroke:#181818;stroke-width:0.5;" width="81" x="924.5" y="2345.6641"/><text fill="#000000" font-family="sans-serif" font-size="14" font-weight="bold" lengthAdjust="spacing" textLength="67" x="931.5" y="2367.1973">Sensores</text><text fill="#000000" font-family="sans-serif" font-size="14" lengthAdjust="spacing" textLength="63" x="933.5" y="2384.8066">(diversos)</text><rect fill="#D3D3D3" height="49.2188" rx="2.5" ry="2.5" style="stroke:#181818;stroke-width:0.5;" width="84" x="1243" y="50"/><text fill="#000000" font-family="sans-serif" font-size="14" font-weight="bold" lengthAdjust="spacing" textLength="50" x="1260" y="71.5332">Sensor</text><text fill="#000000" font-family="sans-serif" font-size="14" lengthAdjust="spacing" textLength="70" x="1250" y="89.1426">(DS18B20)</text><rect fill="#D3D3D3" height="49.2188" rx="2.5" ry="2.5" style="stroke:#181818;stroke-width:0.5;" width="84" x="1243" y="2345.6641"/><text fill="#000000" font-family="sans-serif" font-size="14" font-weight="bold" lengthAdjust="spacing" textLength="50" x="1260" y="2367.1973">Sensor</text><text fill="#000000" font-family="sans-serif" font-size="14" lengthAdjust="spacing" textLength="70" x="1250" y="2384.8066">(DS18B20)</text><rect fill="#D3D3D3" height="462.3281" style="stroke:#181818;stroke-width:1.0;" width="10" x="84" y="193.2734"/><rect fill="#A9A9A9" height="123.7578" style="stroke:#181818;stroke-width:1.0;" width="10" x="89" y="394.0859"/><rect fill="#D3D3D3" height="30.3516" style="stroke:#181818;stroke-width:1.0;" width="10" x="84" y="788.3594"/><rect fill="#D3D3D3" height="136.4063" style="stroke:#181818;stroke-width:1.0;" width="10" x="84" y="890.7656"/><rect fill="#A9A9A9" height="104.0547" style="stroke:#181818;stroke-width:1.0;" width="10" x="84" y="1089.7109"/><rect fill="#D3D3D3" height="83.0547" style="stroke:#181818;stroke-width:1.0;" width="10" x="84" y="1272.8203"/><rect fill="#D3D3D3" height="30.3516" style="stroke:#181818;stroke-width:1.0;" width="10" x="84" y="1425.4141"/><rect fill="#D3D3D3" height="219.8125" style="stroke:#181818;stroke-width:1.0;" width="10" x="84" y="1579.1719"/><rect fill="#A9A9A9" height="90.4063" style="stroke:#181818;stroke-width:1.0;" width="10" x="89" y="1708.5781"/><rect fill="#D3D3D3" height="376.5703" style="stroke:#181818;stroke-width:1.0;" width="10" x="84" y="1953.0938"/><rect fill="#A9A9A9" height="254.1641" style="stroke:#181818;stroke-width:1.0;" width="10" x="89" y="2060.5"/><rect fill="#808080" height="30.3516" style="stroke:#181818;stroke-width:1.0;" width="10" x="94" y="2284.3125"/><rect fill="#FFB6C1" height="30.3516" style="stroke:#181818;stroke-width:1.0;" width="10" x="450" y="193.2734"/><rect fill="#FFB6C1" height="30.3516" style="stroke:#181818;stroke-width:1.0;" width="10" x="450" y="625.25"/><rect fill="#FFB6C1" height="30.3516" style="stroke:#181818;stroke-width:1.0;" width="10" x="450" y="2151.5547"/><rect fill="#E0FFFF" height="77.0547" style="stroke:#181818;stroke-width:1.0;" width="10" x="541" y="270.3281"/><rect fill="#E0FFFF" height="77.0547" style="stroke:#181818;stroke-width:1.0;" width="10" x="541" y="2237.6094"/><rect fill="#FFFFE0" height="123.7578" style="stroke:#181818;stroke-width:1.0;" width="10" x="635.5" y="394.0859"/><rect fill="#FFFFE0" height="303" style="stroke:#181818;stroke-width:1.0;" width="10" x="635.5" y="890.7656"/><rect fill="#FFFF00" height="171.5938" style="stroke:#181818;stroke-width:1.0;" width="10" x="640.5" y="954.4688"/><rect fill="#90EE90" height="77.0547" style="stroke:#181818;stroke-width:1.0;" width="10" x="871.5" y="440.7891"/><rect fill="#90EE90" height="182.9453" style="stroke:#181818;stroke-width:1.0;" width="10" x="871.5" y="1272.8203"/><rect fill="#ADD8E6" height="30.3516" style="stroke:#181818;stroke-width:1.0;" width="10" x="960" y="487.4922"/><rect fill="#ADD8E6" height="30.3516" style="stroke:#181818;stroke-width:1.0;" width="10" x="960" y="788.3594"/><rect fill="#ADD8E6" height="30.3516" style="stroke:#181818;stroke-width:1.0;" width="10" x="960" y="1579.1719"/><rect fill="#ADD8E6" height="107.4063" style="stroke:#181818;stroke-width:1.0;" width="10" x="960" y="1953.0938"/><rect fill="#D3D3D3" height="30.3516" style="stroke:#181818;stroke-width:1.0;" width="10" x="1280" y="564.5469"/><rect fill="#D3D3D3" height="30.3516" style="stroke:#181818;stroke-width:1.0;" width="10" x="1280" y="1999.7969"/><rect fill="#EEEEEE" height="3" style="stroke:#EEEEEE;stroke-width:1.0;" width="1347" x="0" y="131.3945"/><line style="stroke:#000000;stroke-width:1.0;" x1="0" x2="1347" y1="131.3945" y2="131.3945"/><line style="stroke:#000000;stroke-width:1.0;" x1="0" x2="1347" y1="134.3945" y2="134.3945"/><rect fill="#EEEEEE" height="24.3516" style="stroke:#000000;stroke-width:2.0;" width="184" x="581.5" y="120.2188"/><text fill="#000000" font-family="sans-serif" font-size="13" font-weight="bold" lengthAdjust="spacing" textLength="166" x="587.5" y="137.7139">Inicializa&#231;&#227;o - void setup()</text><polygon fill="#181818" points="438,189.2734,448,193.2734,438,197.2734,442,193.2734" style="stroke:#181818;stroke-width:1.0;"/><line style="stroke:#181818;stroke-width:1.0;" x1="94" x2="444" y1="193.2734" y2="193.2734"/><text fill="#000000" font-family="sans-serif" font-size="13" lengthAdjust="spacing" textLength="139" x="101" y="172.0654">Inicializar a porta Serial:</text><text fill="#000000" font-family="sans-serif" font-size="13" font-weight="bold" lengthAdjust="spacing" textLength="109" x="101" y="188.417">inicializarSerial()</text><polygon fill="#181818" points="105,219.625,95,223.625,105,227.625,101,223.625" style="stroke:#181818;stroke-width:1.0;"/><line style="stroke:#181818;stroke-width:1.0;stroke-dasharray:2.0,2.0;" x1="99" x2="454" y1="223.625" y2="223.625"/><text fill="#000000" font-family="sans-serif" font-size="13" lengthAdjust="spacing" textLength="127" x="111" y="218.7686">Inicializa&#231;&#227;o realizada</text><polygon fill="#181818" points="529,266.3281,539,270.3281,529,274.3281,533,270.3281" style="stroke:#181818;stroke-width:1.0;"/><line style="stroke:#181818;stroke-width:1.0;" x1="94" x2="535" y1="270.3281" y2="270.3281"/><text fill="#000000" font-family="sans-serif" font-size="13" lengthAdjust="spacing" textLength="138" x="101" y="249.1201">Inicializar protocolo I2C:</text><text fill="#000000" font-family="sans-serif" font-size="13" font-weight="bold" lengthAdjust="spacing" textLength="91" x="101" y="265.4717">inicializarI2C()</text><polygon fill="#181818" points="529,313.0313,539,317.0313,529,321.0313,533,317.0313" style="stroke:#181818;stroke-width:1.0;"/><line style="stroke:#181818;stroke-width:1.0;" x1="94" x2="535" y1="317.0313" y2="317.0313"/><text fill="#000000" font-family="sans-serif" font-size="13" lengthAdjust="spacing" textLength="403" x="101" y="295.8232">Registrar fun&#231;&#227;o para atender &#224;s requisi&#231;&#245;es de PRINCIPAL (mestre):</text><text fill="#000000" font-family="sans-serif" font-size="13" font-weight="bold" lengthAdjust="spacing" textLength="305" x="101" y="312.1748">eventoRequisicao(const dadosSensores&amp; dados)</text><polygon fill="#181818" points="105,343.3828,95,347.3828,105,351.3828,101,347.3828" style="stroke:#181818;stroke-width:1.0;"/><line style="stroke:#181818;stroke-width:1.0;" x1="99" x2="545" y1="347.3828" y2="347.3828"/><text fill="#000000" font-family="sans-serif" font-size="13" lengthAdjust="spacing" textLength="127" x="111" y="342.5264">Inicializa&#231;&#227;o realizada</text><polygon fill="#181818" points="623.5,390.0859,633.5,394.0859,623.5,398.0859,627.5,394.0859" style="stroke:#181818;stroke-width:1.0;"/><line style="stroke:#181818;stroke-width:1.0;" x1="99" x2="629.5" y1="394.0859" y2="394.0859"/><text fill="#000000" font-family="sans-serif" font-size="13" lengthAdjust="spacing" textLength="207" x="106" y="372.8779">Configurar porta (bomba submersa):</text><text fill="#000000" font-family="sans-serif" font-size="13" font-weight="bold" lengthAdjust="spacing" textLength="230" x="106" y="389.2295">pinMode(submersaBomba, OUTPUT)</text><polygon fill="#181818" points="859.5,436.7891,869.5,440.7891,859.5,444.7891,863.5,440.7891" style="stroke:#181818;stroke-width:1.0;"/><line style="stroke:#181818;stroke-width:1.0;" x1="99" x2="865.5" y1="440.7891" y2="440.7891"/><text fill="#000000" font-family="sans-serif" font-size="13" lengthAdjust="spacing" textLength="196" x="106" y="419.5811">Configurar porta (bomba superior):</text><text fill="#000000" font-family="sans-serif" font-size="13" font-weight="bold" lengthAdjust="spacing" textLength="221" x="106" y="435.9326">pinMode(superiorBomba, OUTPUT)</text><polygon fill="#181818" points="948,483.4922,958,487.4922,948,491.4922,952,487.4922" style="stroke:#181818;stroke-width:1.0;"/><line style="stroke:#181818;stroke-width:1.0;" x1="99" x2="954" y1="487.4922" y2="487.4922"/><text fill="#000000" font-family="sans-serif" font-size="13" lengthAdjust="spacing" textLength="287" x="106" y="466.2842">Configurar e inicializar portas (sensores diversos):</text><text fill="#000000" font-family="sans-serif" font-size="13" font-weight="bold" lengthAdjust="spacing" textLength="113" x="106" y="482.6357">configurarPortas()</text><polygon fill="#181818" points="105,513.8438,95,517.8438,105,521.8438,101,517.8438" style="stroke:#181818;stroke-width:1.0;"/><line style="stroke:#181818;stroke-width:1.0;stroke-dasharray:2.0,2.0;" x1="99" x2="964" y1="517.8438" y2="517.8438"/><text fill="#000000" font-family="sans-serif" font-size="13" lengthAdjust="spacing" textLength="145" x="111" y="512.9873">Configura&#231;&#245;es realizadas</text><polygon fill="#181818" points="1268,560.5469,1278,564.5469,1268,568.5469,1272,564.5469" style="stroke:#181818;stroke-width:1.0;"/><line style="stroke:#181818;stroke-width:1.0;" x1="94" x2="1274" y1="564.5469" y2="564.5469"/><text fill="#000000" font-family="sans-serif" font-size="13" lengthAdjust="spacing" textLength="192" x="101" y="543.3389">Inicializar sensor de temperatura:</text><text fill="#000000" font-family="sans-serif" font-size="13" font-weight="bold" lengthAdjust="spacing" textLength="197" x="101" y="559.6904">inicializarSensorTemperatura()</text><polygon fill="#181818" points="105,590.8984,95,594.8984,105,598.8984,101,594.8984" style="stroke:#181818;stroke-width:1.0;"/><line style="stroke:#181818;stroke-width:1.0;stroke-dasharray:2.0,2.0;" x1="99" x2="1284" y1="594.8984" y2="594.8984"/><text fill="#000000" font-family="sans-serif" font-size="13" lengthAdjust="spacing" textLength="127" x="111" y="590.042">Inicializa&#231;&#227;o realizada</text><polygon fill="#181818" points="438,621.25,448,625.25,438,629.25,442,625.25" style="stroke:#181818;stroke-width:1.0;"/><line style="stroke:#181818;stroke-width:1.0;" x1="94" x2="444" y1="625.25" y2="625.25"/><text fill="#000000" font-family="sans-serif" font-size="13" lengthAdjust="spacing" textLength="166" x="101" y="620.3936">Exibir status de inicializa&#231;&#227;o</text><polygon fill="#181818" points="100,651.6016,90,655.6016,100,659.6016,96,655.6016" style="stroke:#181818;stroke-width:1.0;"/><line style="stroke:#181818;stroke-width:1.0;stroke-dasharray:2.0,2.0;" x1="94" x2="454" y1="655.6016" y2="655.6016"/><text fill="#000000" font-family="sans-serif" font-size="13" lengthAdjust="spacing" textLength="83" x="106" y="650.7451">Status exibido</text><rect fill="#EEEEEE" height="3" style="stroke:#EEEEEE;stroke-width:1.0;" width="1347" x="0" y="684.7773"/><line style="stroke:#000000;stroke-width:1.0;" x1="0" x2="1347" y1="684.7773" y2="684.7773"/><line style="stroke:#000000;stroke-width:1.0;" x1="0" x2="1347" y1="687.7773" y2="687.7773"/><rect fill="#EEEEEE" height="24.3516" style="stroke:#000000;stroke-width:2.0;" width="159" x="594" y="673.6016"/><text fill="#000000" font-family="sans-serif" font-size="13" font-weight="bold" lengthAdjust="spacing" textLength="141" x="600" y="691.0967">Opera&#231;&#227;o - void loop()</text><path d="M10,714.9531 L83,714.9531 L83,723.3047 L73,733.3047 L10,733.3047 L10,714.9531 " fill="#EEEEEE" style="stroke:#000000;stroke-width:1.5;"/><rect fill="none" height="1614.7109" style="stroke:#000000;stroke-width:1.5;" width="1327" x="10" y="714.9531"/><text fill="#000000" font-family="sans-serif" font-size="13" font-weight="bold" lengthAdjust="spacing" textLength="28" x="25" y="729.4482">loop</text><polygon fill="#181818" points="948,784.3594,958,788.3594,948,792.3594,952,788.3594" style="stroke:#181818;stroke-width:1.0;"/><line style="stroke:#181818;stroke-width:1.0;" x1="94" x2="954" y1="788.3594" y2="788.3594"/><text fill="#000000" font-family="sans-serif" font-size="13" lengthAdjust="spacing" textLength="205" x="101" y="750.7998">Ler sensores de n&#237;vel (baixo e alto):</text><text fill="#000000" font-family="sans-serif" font-size="13" font-weight="bold" lengthAdjust="spacing" textLength="276" x="101" y="767.1514">estadoNivelBaixo = digitalRead(nivelBaixo)</text><text fill="#000000" font-family="sans-serif" font-size="13" font-weight="bold" lengthAdjust="spacing" textLength="252" x="101" y="783.5029">estadoNivelAlto = digitalRead(nivelAlto)</text><polygon fill="#181818" points="100,814.7109,90,818.7109,100,822.7109,96,818.7109" style="stroke:#181818;stroke-width:1.0;"/><line style="stroke:#181818;stroke-width:1.0;" x1="94" x2="964" y1="818.7109" y2="818.7109"/><text fill="#000000" font-family="sans-serif" font-size="13" lengthAdjust="spacing" textLength="133" x="106" y="813.8545">Respostas das leituras</text><path d="M20,833.7109 L81,833.7109 L81,842.0625 L71,852.0625 L20,852.0625 L20,833.7109 " fill="#EEEEEE" style="stroke:#000000;stroke-width:1.5;"/><rect fill="none" height="368.0547" style="stroke:#000000;stroke-width:1.5;" width="856.5" x="20" y="833.7109"/><text fill="#000000" font-family="sans-serif" font-size="13" font-weight="bold" lengthAdjust="spacing" textLength="16" x="35" y="848.2061">alt</text><text fill="#000000" font-family="sans-serif" font-size="11" font-weight="bold" lengthAdjust="spacing" textLength="295" x="96" y="847.1299">[estadoNivelBaixo == HIGH &amp;&amp; estadoNivelAlto == HIGH]</text><polygon fill="#181818" points="623.5,886.7656,633.5,890.7656,623.5,894.7656,627.5,890.7656" style="stroke:#181818;stroke-width:1.0;"/><line style="stroke:#181818;stroke-width:1.0;" x1="94" x2="629.5" y1="890.7656" y2="890.7656"/><text fill="#000000" font-family="sans-serif" font-size="13" lengthAdjust="spacing" textLength="147" x="101" y="869.5576">Ligar a bomba submersa:</text><text fill="#000000" font-family="sans-serif" font-size="13" font-weight="bold" lengthAdjust="spacing" textLength="228" x="101" y="885.9092">digitalWrite(submersaBomba, HIGH)</text><path d="M30,905.7656 L91,905.7656 L91,914.1172 L81,924.1172 L30,924.1172 L30,905.7656 " fill="#EEEEEE" style="stroke:#000000;stroke-width:1.5;"/><rect fill="none" height="92.0547" style="stroke:#000000;stroke-width:1.5;" width="757.5" x="30" y="905.7656"/><text fill="#000000" font-family="sans-serif" font-size="13" font-weight="bold" lengthAdjust="spacing" textLength="16" x="45" y="920.2607">alt</text><text fill="#000000" font-family="sans-serif" font-size="11" font-weight="bold" lengthAdjust="spacing" textLength="105" x="106" y="919.1846">[calculadoH = false]</text><line style="stroke:#181818;stroke-width:1.0;" x1="645.5" x2="692.5" y1="941.4688" y2="941.4688"/><line style="stroke:#181818;stroke-width:1.0;" x1="692.5" x2="692.5" y1="941.4688" y2="954.4688"/><line style="stroke:#181818;stroke-width:1.0;" x1="651.5" x2="692.5" y1="954.4688" y2="954.4688"/><polygon fill="#181818" points="661.5,950.4688,651.5,954.4688,661.5,958.4688,657.5,954.4688" style="stroke:#181818;stroke-width:1.0;"/><text fill="#000000" font-family="sans-serif" font-size="13" font-weight="bold" lengthAdjust="spacing" textLength="108" x="657.5" y="936.6123">t_inicial = millis()</text><polygon fill="#181818" points="105,985.8203,95,989.8203,105,993.8203,101,989.8203" style="stroke:#181818;stroke-width:1.0;"/><line style="stroke:#181818;stroke-width:1.0;" x1="99" x2="639.5" y1="989.8203" y2="989.8203"/><text fill="#000000" font-family="sans-serif" font-size="13" lengthAdjust="spacing" textLength="165" x="111" y="984.9639">Contagem de tempo iniciada</text><polygon fill="#181818" points="100,1023.1719,90,1027.1719,100,1031.1719,96,1027.1719" style="stroke:#181818;stroke-width:1.0;"/><line style="stroke:#181818;stroke-width:1.0;stroke-dasharray:2.0,2.0;" x1="94" x2="639.5" y1="1027.1719" y2="1027.1719"/><text fill="#000000" font-family="sans-serif" font-size="13" lengthAdjust="spacing" textLength="79" x="106" y="1022.3154">Bomba ligada</text><line style="stroke:#000000;stroke-width:1.0;stroke-dasharray:2.0,2.0;" x1="20" x2="876.5" y1="1036.1719" y2="1036.1719"/><text fill="#000000" font-family="sans-serif" font-size="11" font-weight="bold" lengthAdjust="spacing" textLength="137" x="25" y="1047.5908">[estadoNivelAlto == LOW]</text><polygon fill="#181818" points="628.5,1085.7109,638.5,1089.7109,628.5,1093.7109,632.5,1089.7109" style="stroke:#181818;stroke-width:1.0;"/><line style="stroke:#181818;stroke-width:1.0;" x1="94" x2="634.5" y1="1089.7109" y2="1089.7109"/><text fill="#000000" font-family="sans-serif" font-size="13" lengthAdjust="spacing" textLength="155" x="101" y="1068.5029">Desligar bomba submersa:</text><text fill="#000000" font-family="sans-serif" font-size="13" font-weight="bold" lengthAdjust="spacing" textLength="227" x="101" y="1084.8545">digitalWrite(submersaBomba, LOW)</text><line style="stroke:#181818;stroke-width:1.0;" x1="650.5" x2="692.5" y1="1125.0625" y2="1125.0625"/><line style="stroke:#181818;stroke-width:1.0;" x1="692.5" x2="692.5" y1="1125.0625" y2="1138.0625"/><line style="stroke:#181818;stroke-width:1.0;" x1="645.5" x2="692.5" y1="1138.0625" y2="1138.0625"/><polygon fill="#181818" points="655.5,1134.0625,645.5,1138.0625,655.5,1142.0625,651.5,1138.0625" style="stroke:#181818;stroke-width:1.0;"/><text fill="#000000" font-family="sans-serif" font-size="13" font-weight="bold" lengthAdjust="spacing" textLength="192" x="657.5" y="1120.2061">t_decorrido = millis() - t_inicial</text><polygon fill="#181818" points="105,1159.4141,95,1163.4141,105,1167.4141,101,1163.4141" style="stroke:#181818;stroke-width:1.0;"/><line style="stroke:#181818;stroke-width:1.0;" x1="99" x2="634.5" y1="1163.4141" y2="1163.4141"/><text fill="#000000" font-family="sans-serif" font-size="13" lengthAdjust="spacing" textLength="178" x="111" y="1158.5576">Contagem de tempo encerrada</text><polygon fill="#181818" points="100,1189.7656,90,1193.7656,100,1197.7656,96,1193.7656" style="stroke:#181818;stroke-width:1.0;"/><line style="stroke:#181818;stroke-width:1.0;stroke-dasharray:2.0,2.0;" x1="94" x2="639.5" y1="1193.7656" y2="1193.7656"/><text fill="#000000" font-family="sans-serif" font-size="13" lengthAdjust="spacing" textLength="100" x="106" y="1188.9092">Bomba desligada</text><path d="M30,1215.7656 L91,1215.7656 L91,1224.1172 L81,1234.1172 L30,1234.1172 L30,1215.7656 " fill="#EEEEEE" style="stroke:#000000;stroke-width:1.5;"/><rect fill="none" height="248" style="stroke:#000000;stroke-width:1.5;" width="894.5" x="30" y="1215.7656"/><text fill="#000000" font-family="sans-serif" font-size="13" font-weight="bold" lengthAdjust="spacing" textLength="16" x="45" y="1230.2607">alt</text><text fill="#000000" font-family="sans-serif" font-size="11" font-weight="bold" lengthAdjust="spacing" textLength="144" x="106" y="1229.1846">[estadoNivelBaixo == LOW]</text><polygon fill="#181818" points="859.5,1268.8203,869.5,1272.8203,859.5,1276.8203,863.5,1272.8203" style="stroke:#181818;stroke-width:1.0;"/><line style="stroke:#181818;stroke-width:1.0;" x1="94" x2="865.5" y1="1272.8203" y2="1272.8203"/><text fill="#000000" font-family="sans-serif" font-size="13" lengthAdjust="spacing" textLength="125" x="101" y="1251.6123">Ligar bomba superior:</text><text fill="#000000" font-family="sans-serif" font-size="13" font-weight="bold" lengthAdjust="spacing" textLength="219" x="101" y="1267.9639">digitalWrite(superiorBomba, HIGH)</text><polygon fill="#181818" points="105,1299.1719,95,1303.1719,105,1307.1719,101,1303.1719" style="stroke:#181818;stroke-width:1.0;"/><line style="stroke:#181818;stroke-width:1.0;stroke-dasharray:2.0,2.0;" x1="99" x2="870.5" y1="1303.1719" y2="1303.1719"/><text fill="#000000" font-family="sans-serif" font-size="13" lengthAdjust="spacing" textLength="79" x="111" y="1298.3154">Bomba ligada</text><line style="stroke:#181818;stroke-width:1.0;stroke-dasharray:2.0,2.0;" x1="94" x2="136" y1="1354.875" y2="1354.875"/><line style="stroke:#181818;stroke-width:1.0;stroke-dasharray:2.0,2.0;" x1="136" x2="136" y1="1354.875" y2="1367.875"/><line style="stroke:#181818;stroke-width:1.0;stroke-dasharray:2.0,2.0;" x1="89" x2="136" y1="1367.875" y2="1367.875"/><polygon fill="#181818" points="99,1363.875,89,1367.875,99,1371.875,95,1367.875" style="stroke:#181818;stroke-width:1.0;"/><text fill="#000000" font-family="sans-serif" font-size="13" lengthAdjust="spacing" textLength="283" x="101" y="1333.667">Contagem de pulsos resetada (sensor de vaz&#227;o):</text><text fill="#000000" font-family="sans-serif" font-size="13" font-weight="bold" lengthAdjust="spacing" textLength="63" x="101" y="1350.0186">pulsos = 0</text><line style="stroke:#000000;stroke-width:1.0;stroke-dasharray:2.0,2.0;" x1="30" x2="924.5" y1="1371.875" y2="1371.875"/><text fill="#000000" font-family="sans-serif" font-size="11" font-weight="bold" lengthAdjust="spacing" textLength="144" x="35" y="1383.2939">[estadoNivelBaixo == HIGH]</text><polygon fill="#181818" points="859.5,1421.4141,869.5,1425.4141,859.5,1429.4141,863.5,1425.4141" style="stroke:#181818;stroke-width:1.0;"/><line style="stroke:#181818;stroke-width:1.0;" x1="94" x2="865.5" y1="1425.4141" y2="1425.4141"/><text fill="#000000" font-family="sans-serif" font-size="13" lengthAdjust="spacing" textLength="144" x="101" y="1404.2061">Desligar bomba superior:</text><text fill="#000000" font-family="sans-serif" font-size="13" font-weight="bold" lengthAdjust="spacing" textLength="218" x="101" y="1420.5576">digitalWrite(superiorBomba, LOW)</text><polygon fill="#181818" points="100,1451.7656,90,1455.7656,100,1459.7656,96,1455.7656" style="stroke:#181818;stroke-width:1.0;"/><line style="stroke:#181818;stroke-width:1.0;stroke-dasharray:2.0,2.0;" x1="94" x2="875.5" y1="1455.7656" y2="1455.7656"/><text fill="#000000" font-family="sans-serif" font-size="13" lengthAdjust="spacing" textLength="100" x="106" y="1450.9092">Bomba desligada</text><path d="M30,1477.7656 L91,1477.7656 L91,1486.1172 L81,1496.1172 L30,1496.1172 L30,1477.7656 " fill="#EEEEEE" style="stroke:#000000;stroke-width:1.5;"/><rect fill="none" height="336.2188" style="stroke:#000000;stroke-width:1.5;" width="985.5" x="30" y="1477.7656"/><text fill="#000000" font-family="sans-serif" font-size="13" font-weight="bold" lengthAdjust="spacing" textLength="16" x="45" y="1492.2607">alt</text><text fill="#000000" font-family="sans-serif" font-size="11" font-weight="bold" lengthAdjust="spacing" textLength="105" x="106" y="1491.1846">[calculadoH = false]</text><rect fill="#EEEEEE" height="3" style="stroke:#EEEEEE;stroke-width:1.0;" width="1347" x="0" y="1517.293"/><line style="stroke:#000000;stroke-width:1.0;" x1="0" x2="1347" y1="1517.293" y2="1517.293"/><line style="stroke:#000000;stroke-width:1.0;" x1="0" x2="1347" y1="1520.293" y2="1520.293"/><rect fill="#EEEEEE" height="24.3516" style="stroke:#000000;stroke-width:2.0;" width="119" x="614" y="1506.1172"/><text fill="#000000" font-family="sans-serif" font-size="13" font-weight="bold" lengthAdjust="spacing" textLength="101" x="620" y="1523.6123">lerSensorVazao</text><polygon fill="#181818" points="948,1575.1719,958,1579.1719,948,1583.1719,952,1579.1719" style="stroke:#181818;stroke-width:1.0;"/><line style="stroke:#181818;stroke-width:1.0;" x1="94" x2="954" y1="1579.1719" y2="1579.1719"/><text fill="#000000" font-family="sans-serif" font-size="13" lengthAdjust="spacing" textLength="120" x="101" y="1557.9639">Ler sensor de vaz&#227;o:</text><text fill="#000000" font-family="sans-serif" font-size="13" font-weight="bold" lengthAdjust="spacing" textLength="182" x="101" y="1574.3154">Q_media = lerSensorVazao()</text><polygon fill="#181818" points="105,1605.5234,95,1609.5234,105,1613.5234,101,1609.5234" style="stroke:#181818;stroke-width:1.0;"/><line style="stroke:#181818;stroke-width:1.0;" x1="99" x2="964" y1="1609.5234" y2="1609.5234"/><text fill="#000000" font-family="sans-serif" font-size="13" lengthAdjust="spacing" textLength="112" x="111" y="1604.667">Resposta da leitura</text><rect fill="#EEEEEE" height="3" style="stroke:#EEEEEE;stroke-width:1.0;" width="1347" x="0" y="1638.6992"/><line style="stroke:#000000;stroke-width:1.0;" x1="0" x2="1347" y1="1638.6992" y2="1638.6992"/><line style="stroke:#000000;stroke-width:1.0;" x1="0" x2="1347" y1="1641.6992" y2="1641.6992"/><rect fill="#EEEEEE" height="24.3516" style="stroke:#000000;stroke-width:2.0;" width="72" x="637.5" y="1627.5234"/><text fill="#000000" font-family="sans-serif" font-size="13" font-weight="bold" lengthAdjust="spacing" textLength="54" x="643.5" y="1645.0186">C&#225;lculos</text><line style="stroke:#181818;stroke-width:1.0;" x1="94" x2="141" y1="1695.5781" y2="1695.5781"/><line style="stroke:#181818;stroke-width:1.0;" x1="141" x2="141" y1="1695.5781" y2="1708.5781"/><line style="stroke:#181818;stroke-width:1.0;" x1="100" x2="141" y1="1708.5781" y2="1708.5781"/><polygon fill="#181818" points="110,1704.5781,100,1708.5781,110,1712.5781,106,1708.5781" style="stroke:#181818;stroke-width:1.0;"/><text fill="#000000" font-family="sans-serif" font-size="13" lengthAdjust="spacing" textLength="106" x="106" y="1674.3701">Calcular o volume:</text><text fill="#000000" font-family="sans-serif" font-size="13" font-weight="bold" lengthAdjust="spacing" textLength="257" x="106" y="1690.7217">V_total = Q_media * (t_decorrido / 60000)</text><line style="stroke:#181818;stroke-width:1.0;" x1="99" x2="141" y1="1797.9844" y2="1797.9844"/><line style="stroke:#181818;stroke-width:1.0;" x1="141" x2="141" y1="1797.9844" y2="1810.9844"/><line style="stroke:#181818;stroke-width:1.0;" x1="94" x2="141" y1="1810.9844" y2="1810.9844"/><polygon fill="#181818" points="104,1806.9844,94,1810.9844,104,1814.9844,100,1810.9844" style="stroke:#181818;stroke-width:1.0;"/><text fill="#000000" font-family="sans-serif" font-size="13" lengthAdjust="spacing" textLength="141" x="106" y="1744.0732">Calcular a eleva&#231;&#227;o real:</text><text fill="#000000" font-family="sans-serif" font-size="13" font-weight="bold" lengthAdjust="spacing" textLength="102" x="106" y="1760.4248">D_cano = 0.0127</text><text fill="#000000" font-family="sans-serif" font-size="13" font-weight="bold" lengthAdjust="spacing" textLength="322" x="106" y="1776.7764">A_canoST = 3.14159 * (D_cano / 2.0) * (D_cano / 2.0)</text><text fill="#000000" font-family="sans-serif" font-size="13" font-weight="bold" lengthAdjust="spacing" textLength="285" x="106" y="1793.1279">dados.elevacao = V_total / (1000 * A_canoST)</text><rect fill="#EEEEEE" height="3" style="stroke:#EEEEEE;stroke-width:1.0;" width="1347" x="0" y="1842.1602"/><line style="stroke:#000000;stroke-width:1.0;" x1="0" x2="1347" y1="1842.1602" y2="1842.1602"/><line style="stroke:#000000;stroke-width:1.0;" x1="0" x2="1347" y1="1845.1602" y2="1845.1602"/><rect fill="#EEEEEE" height="24.3516" style="stroke:#000000;stroke-width:2.0;" width="162" x="592.5" y="1830.9844"/><text fill="#000000" font-family="sans-serif" font-size="13" font-weight="bold" lengthAdjust="spacing" textLength="144" x="598.5" y="1848.4795">Ler sensores (diversos)</text><polygon fill="#181818" points="948,1949.0938,958,1953.0938,948,1957.0938,952,1953.0938" style="stroke:#181818;stroke-width:1.0;"/><line style="stroke:#181818;stroke-width:1.0;" x1="94" x2="954" y1="1953.0938" y2="1953.0938"/><text fill="#000000" font-family="sans-serif" font-size="13" lengthAdjust="spacing" textLength="138" x="101" y="1882.8311">Ler sensores (diversos):</text><text fill="#000000" font-family="sans-serif" font-size="13" font-weight="bold" lengthAdjust="spacing" textLength="235" x="101" y="1899.1826">dados.corrente = lerSensorCorrente()</text><text fill="#000000" font-family="sans-serif" font-size="13" font-weight="bold" lengthAdjust="spacing" textLength="172" x="101" y="1915.5342">dados.som = lerMicrofone()</text><text fill="#000000" font-family="sans-serif" font-size="13" font-weight="bold" lengthAdjust="spacing" textLength="215" x="101" y="1931.8857">dados.tensao = lerSensorTensao()</text><text fill="#000000" font-family="sans-serif" font-size="13" font-weight="bold" lengthAdjust="spacing" textLength="232" x="101" y="1948.2373">dados.vazao = lerSensorVazao() * 60</text><polygon fill="#181818" points="1268,1995.7969,1278,1999.7969,1268,2003.7969,1272,1999.7969" style="stroke:#181818;stroke-width:1.0;"/><line style="stroke:#181818;stroke-width:1.0;" x1="970" x2="1274" y1="1999.7969" y2="1999.7969"/><text fill="#000000" font-family="sans-serif" font-size="13" lengthAdjust="spacing" textLength="156" x="977" y="1978.5889">Ler sensor de temperatura:</text><text fill="#000000" font-family="sans-serif" font-size="13" font-weight="bold" lengthAdjust="spacing" textLength="287" x="981" y="1994.9404">dados.temperatura = lerSensorTemperatura()</text><polygon fill="#181818" points="981,2026.1484,971,2030.1484,981,2034.1484,977,2030.1484" style="stroke:#181818;stroke-width:1.0;"/><line style="stroke:#181818;stroke-width:1.0;" x1="975" x2="1284" y1="2030.1484" y2="2030.1484"/><text fill="#000000" font-family="sans-serif" font-size="13" lengthAdjust="spacing" textLength="104" x="987" y="2025.292">Temperatura atual</text><polygon fill="#181818" points="110,2056.5,100,2060.5,110,2064.5,106,2060.5" style="stroke:#181818;stroke-width:1.0;"/><line style="stroke:#181818;stroke-width:1.0;" x1="104" x2="964" y1="2060.5" y2="2060.5"/><text fill="#000000" font-family="sans-serif" font-size="13" lengthAdjust="spacing" textLength="133" x="116" y="2055.6436">Respostas das leituras</text><rect fill="#EEEEEE" height="3" style="stroke:#EEEEEE;stroke-width:1.0;" width="1347" x="0" y="2089.6758"/><line style="stroke:#000000;stroke-width:1.0;" x1="0" x2="1347" y1="2089.6758" y2="2089.6758"/><line style="stroke:#000000;stroke-width:1.0;" x1="0" x2="1347" y1="2092.6758" y2="2092.6758"/><rect fill="#EEEEEE" height="24.3516" style="stroke:#000000;stroke-width:2.0;" width="162" x="592.5" y="2078.5"/><text fill="#000000" font-family="sans-serif" font-size="13" font-weight="bold" lengthAdjust="spacing" textLength="144" x="598.5" y="2095.9951">mostrardadosSensores</text><polygon fill="#181818" points="438,2147.5547,448,2151.5547,438,2155.5547,442,2151.5547" style="stroke:#181818;stroke-width:1.0;"/><line style="stroke:#181818;stroke-width:1.0;" x1="99" x2="444" y1="2151.5547" y2="2151.5547"/><text fill="#000000" font-family="sans-serif" font-size="13" lengthAdjust="spacing" textLength="158" x="106" y="2130.3467">Exibir dados armazenados:</text><text fill="#000000" font-family="sans-serif" font-size="13" font-weight="bold" lengthAdjust="spacing" textLength="190" x="106" y="2146.6982">mostrardadosSensores(dados)</text><polygon fill="#181818" points="110,2177.9063,100,2181.9063,110,2185.9063,106,2181.9063" style="stroke:#181818;stroke-width:1.0;"/><line style="stroke:#181818;stroke-width:1.0;stroke-dasharray:2.0,2.0;" x1="104" x2="454" y1="2181.9063" y2="2181.9063"/><text fill="#000000" font-family="sans-serif" font-size="13" lengthAdjust="spacing" textLength="89" x="116" y="2177.0498">Dados exibidos</text><path d="M30,2196.9063 L91,2196.9063 L91,2205.2578 L81,2215.2578 L30,2215.2578 L30,2196.9063 " fill="#EEEEEE" style="stroke:#000000;stroke-width:1.5;"/><rect fill="none" height="125.7578" style="stroke:#000000;stroke-width:1.5;" width="567.5" x="30" y="2196.9063"/><text fill="#000000" font-family="sans-serif" font-size="13" font-weight="bold" lengthAdjust="spacing" textLength="16" x="45" y="2211.4014">alt</text><text fill="#000000" font-family="sans-serif" font-size="11" font-weight="bold" lengthAdjust="spacing" textLength="196" x="106" y="2210.3252">[requisi&#231;&#245;es do m&#243;dulo PRINCIPAL]</text><polygon fill="#181818" points="110,2233.6094,100,2237.6094,110,2241.6094,106,2237.6094" style="stroke:#181818;stroke-width:1.0;"/><line style="stroke:#181818;stroke-width:1.0;" x1="104" x2="540" y1="2237.6094" y2="2237.6094"/><text fill="#000000" font-family="sans-serif" font-size="13" lengthAdjust="spacing" textLength="335" x="116" y="2232.7529">Requisi&#231;&#227;o dos dados armazenados (m&#243;dulo PRINCIPAL)</text><polygon fill="#181818" points="529,2280.3125,539,2284.3125,529,2288.3125,533,2284.3125" style="stroke:#181818;stroke-width:1.0;"/><line style="stroke:#181818;stroke-width:1.0;" x1="104" x2="535" y1="2284.3125" y2="2284.3125"/><text fill="#000000" font-family="sans-serif" font-size="13" lengthAdjust="spacing" textLength="160" x="111" y="2263.1045">Enviar dados armazenados:</text><text fill="#000000" font-family="sans-serif" font-size="13" font-weight="bold" lengthAdjust="spacing" textLength="222" x="111" y="2279.4561">Wire.onRequest(eventoRequisicao)</text><polygon fill="#181818" points="105,2310.6641,95,2314.6641,105,2318.6641,101,2314.6641" style="stroke:#181818;stroke-width:1.0;"/><line style="stroke:#181818;stroke-width:1.0;stroke-dasharray:2.0,2.0;" x1="99" x2="545" y1="2314.6641" y2="2314.6641"/><text fill="#000000" font-family="sans-serif" font-size="13" lengthAdjust="spacing" textLength="91" x="111" y="2309.8076">Dados enviados</text><!--SRC=[hLZTJYit4BucJp4wbT2cAX1eUzeYWWG1bKZyDS3XvaZ8sJKv5hlhrDxa07TzarQzw5LlMlK5cXVh-6Stw_Nk1b1p4IKUptZypNmpjkK3IwT4a2JcuGEDG7uY4V_CqWdSarZIJeU46HVmRc-yVtKyk3a_Mlmo6bxiROttFwO1bQ4WSzvz1qJ2WOXcBEKTj9Qna4r9cXarAXY9hSRWukpiyT4e605y4RF9fspAqWTFTVZlNmEhE1Kyuo6FxMB3dO5L39z8wYaUycHChAQSZHCg936AMd9bXwo99nh7_FCA8rFqbWl7Y1coHYQ2qhHcywdaWafh9c9pN9VB700ZFBAZrj8udj46GzRCqTNszuSxlRALQvgWEoIR2L8uH9uwdNuVXYaQ8Z5x9ei_5hzps80vPnXfciscGHVw_Kx7nWuszcrKTajQ0WXCkSX8BlkOeaDiAJV3GLTvf_A5pKb6ytmeUrF8_D3RaGtqm2hkUeuBglz4f1FHYYbd2vWShlz5ycXHrNqSg_fUIQ-gxH6TC9a9j7m_IurlYaE0gcb41In-bUZippCc6Kh_eH8Y2fUZuVbWU7bm2a52KPjsZITqJjECZypqaF0WvAdC848UoZn3rirVuwLoxjKmePA3aSE3NHZmz9vDPcfB9jJ1M4s0WZp6LmpL6OzemIbjvIkukBc-lBbkYdz4n8CR_XOI-YuQbhMvQAbPTT4CjxdOp6EN4IvD7LSei7AYASSa1DAgG45uurnOA5xgcTMyQwi8dipXIk6IJRWY2QHB5jT6MUQ0KICmqIeByehlWrMgHYuJ3J2A3bbfYbzGAaRgSMgeURxmBLMbOgEsHXu_iZ73JMKuHNESkRPVM_2kZ26gp4QyfihLWOyL_a9vwHJtc7DRszMl3a1hFf_IF3AcLAMBF-SqHe8HziWnnKcSyRnQuMOZVewgyQ6MzZ779omZyOYIA4WBGTVqAbVb00tLQQXn4sA0jWPIahPG1G0d-dGf0JsYSigbeYeI16BAL8WbQhLnnP4My8D21tnO-d0o_F44rjV1sxyLQJUTo5IAyYcRwERhbc8J1mlXhM2PLuwLTOFcMXkOQo-enslQHRN3aCJXBCQDd600pTaGzCTLzdU1pcPtbXYech0uPddXCnQQ_2YxiCHfRwEcUMLaGfEyh73BmuWOXB4fTvnr_DQqjhJkcTT_0K5HDKBPgKa3N0GHgGlrwSNjYZ0VKHdhIByspcXw2MFRvbuKeeY6N0YiEwKWOJafObUirDWQNXibcePK21Kc-rb3IgoEH6JmyeFXUrCRgQO0OfQqiBavZla1vTG9eXsj2w9pC5cIjJwAvUBdKwNcw587OEwYbyh5RYfdYI9IqrciYYVMGPgfI0NB3ZudpzXnycENcTU7NbsUDDF4gPOh0FQ8ybACLn2bL19NOhTClhN6irDhYe6f-uqb5Q68gJq1VI3FH85JnSNhRUKMlWoD0UQdkuH6Z43LRl26h5lLT1t-rtYPzrriktdNXIfSDNtNm39O_ARmKbdMztldCdiDgW8u7eNYMK8D31_kCfxf3fG3yYK4vQgt1Uzx-D6eMFCjDNNbwWHJdSvBPqpZnj5TI59LOdkRlUsTxuf3qe4Ulxf6oTURszziV_k3yi_EteATpLxN6oYKzULmKwyNgeI1VBDR46pZdb0pjzzjfsThufemE8V5vOk6ITEN7pE3ojN8x4450w_3j9oj0piML3SiUMBcdR5Gy7kU-bFmGYur8eMrQptYJPmRgdaSGUZUz_wtasd3kRJcqkJosRiiGRwzvIN7sMFrvkIvrt1tgl6lOBBZNraVl_5kKaFYylsfjJIy-KJUob2JhmdNJpNEUqfDiZetEZqPY4Z8CqtLRuDwdQcWz3BZe5ozy9K1s2WMFD8hsHkVjrzzwIlwHUL9YKEo-3l2WhXyMj8ChhuFZGerh4HgDMzt47YMkcu1h3o8LQgVVXGxJkUCD49tomJTvAdo1Rj_K7tqQkj5NhrL-EabBNXgOGEU0vzwydfpeQkHAjb_]--></g></svg>