<svg xmlns="http://www.w3.org/2000/svg" xmlns:xlink="http://www.w3.org/1999/xlink" contentStyleType="text/css" height="758px" preserveAspectRatio="none" style="width:720px;height:758px;background:#FFFFFF;" version="1.1" viewBox="0 0 720 758" width="720px" zoomAndPan="magnify"><defs/><g><!--cluster void setup()--><g id="cluster_void setup()"><rect fill="none" height="381" rx="2.5" ry="2.5" style="stroke:#181818;stroke-width:1.0;" width="518" x="196" y="89.0762"/><text fill="#000000" font-family="sans-serif" font-size="14" font-weight="bold" lengthAdjust="spacing" textLength="85" x="412.5" y="105.6094">void setup()</text></g><g id="elem_UC_InicializarSerial"><ellipse cx="298.2904" cy="152.9796" fill="#90EE90" rx="51.7904" ry="27.9034" style="stroke:#228B22;stroke-width:0.5;"/><text fill="#000000" font-family="sans-serif" font-size="14" lengthAdjust="spacing" textLength="57" x="269.7904" y="147.9034">Inicializar</text><text fill="#000000" font-family="sans-serif" font-size="14" lengthAdjust="spacing" textLength="36" x="280.2904" y="165.5128">Serial</text></g><g id="elem_UC_InicializarI2C"><ellipse cx="298.5391" cy="243.9796" fill="#90EE90" rx="76.5391" ry="27.9034" style="stroke:#228B22;stroke-width:0.5;"/><text fill="#000000" font-family="sans-serif" font-size="14" lengthAdjust="spacing" textLength="57" x="270.0391" y="238.9034">Inicializar</text><text fill="#000000" font-family="sans-serif" font-size="14" lengthAdjust="spacing" textLength="92" x="252.5391" y="256.5128">Protocolo (I&#178;C)</text></g><g id="elem_UC_Inicializar1Wire"><ellipse cx="604.5097" cy="421.9796" fill="#90EE90" rx="93.5097" ry="27.9034" style="stroke:#228B22;stroke-width:0.5;"/><text fill="#000000" font-family="sans-serif" font-size="14" lengthAdjust="spacing" textLength="57" x="576.0097" y="416.9034">Inicializar</text><text fill="#000000" font-family="sans-serif" font-size="14" lengthAdjust="spacing" textLength="116" x="546.5097" y="434.5128">Protocolo (1-Wire)</text></g><g id="elem_UC_ConfigurarPortas"><ellipse cx="298.4325" cy="334.9796" fill="#90EE90" rx="65.9325" ry="27.9034" style="stroke:#228B22;stroke-width:0.5;"/><text fill="#000000" font-family="sans-serif" font-size="14" lengthAdjust="spacing" textLength="67" x="264.9325" y="329.9034">Configurar</text><text fill="#000000" font-family="sans-serif" font-size="14" lengthAdjust="spacing" textLength="77" x="259.9325" y="347.5128">Portas (E/S)</text></g><g id="elem_UC_InicializarSensorTemperatura"><ellipse cx="298.4386" cy="425.9796" fill="#90EE90" rx="86.4386" ry="27.9034" style="stroke:#228B22;stroke-width:0.5;"/><text fill="#000000" font-family="sans-serif" font-size="14" lengthAdjust="spacing" textLength="106" x="245.4386" y="420.9034">Inicializar Sensor</text><text fill="#000000" font-family="sans-serif" font-size="14" lengthAdjust="spacing" textLength="92" x="252.4386" y="438.5128">(Temperatura)</text></g><g id="elem_UC_ExibirStatusInicializacao"><ellipse cx="604.5894" cy="241.9796" fill="#90EE90" rx="71.5894" ry="27.9034" style="stroke:#228B22;stroke-width:0.5;"/><text fill="#000000" font-family="sans-serif" font-size="14" lengthAdjust="spacing" textLength="78" x="565.5894" y="236.9034">Exibir Status</text><text fill="#000000" font-family="sans-serif" font-size="14" lengthAdjust="spacing" textLength="85" x="562.0894" y="254.5128">(Inicializa&#231;&#227;o)</text></g><!--entity Serial--><g id="elem_Serial"><ellipse cx="45" cy="33.6855" fill="#FFA500" rx="8" ry="8" style="stroke:#000000;stroke-width:0.5;"/><path d="M45,41.6855 L45,68.6855 M32,49.6855 L58,49.6855 M45,68.6855 L32,83.6855 M45,68.6855 L58,83.6855 " fill="none" style="stroke:#000000;stroke-width:0.5;"/><text fill="#000000" font-family="sans-serif" font-size="14" font-weight="bold" lengthAdjust="spacing" textLength="40" x="25" y="99.7188">Serial</text><text fill="#000000" font-family="sans-serif" font-size="14" font-style="italic" lengthAdjust="spacing" textLength="49" x="20.5" y="22.1094">&#171;porta&#187;</text></g><!--entity ProtocoloI2C--><g id="elem_ProtocoloI2C"><ellipse cx="45" cy="163.6855" fill="#FFA500" rx="8" ry="8" style="stroke:#000000;stroke-width:0.5;"/><path d="M45,171.6855 L45,198.6855 M32,179.6855 L58,179.6855 M45,198.6855 L32,213.6855 M45,198.6855 L58,213.6855 " fill="none" style="stroke:#000000;stroke-width:0.5;"/><text fill="#000000" font-family="sans-serif" font-size="14" font-weight="bold" lengthAdjust="spacing" textLength="19" x="35.5" y="229.7188">I&#178;C</text><text fill="#000000" font-family="sans-serif" font-size="14" font-style="italic" lengthAdjust="spacing" textLength="75" x="7.5" y="152.1094">&#171;protocolo&#187;</text></g><!--entity Protocolo1Wire--><g id="elem_Protocolo1Wire"><ellipse cx="298.5" cy="515.6855" fill="#FFA500" rx="8" ry="8" style="stroke:#000000;stroke-width:0.5;"/><path d="M298.5,523.6855 L298.5,550.6855 M285.5,531.6855 L311.5,531.6855 M298.5,550.6855 L285.5,565.6855 M298.5,550.6855 L311.5,565.6855 " fill="none" style="stroke:#000000;stroke-width:0.5;"/><text fill="#000000" font-family="sans-serif" font-size="14" font-weight="bold" lengthAdjust="spacing" textLength="45" x="276" y="581.7188">1-Wire</text><text fill="#000000" font-family="sans-serif" font-size="14" font-style="italic" lengthAdjust="spacing" textLength="75" x="261" y="504.1094">&#171;protocolo&#187;</text></g><!--entity BombaSubmersa--><g id="elem_BombaSubmersa"><ellipse cx="45" cy="293.6855" fill="#FFA500" rx="8" ry="8" style="stroke:#000000;stroke-width:0.5;"/><path d="M45,301.6855 L45,328.6855 M32,309.6855 L58,309.6855 M45,328.6855 L32,343.6855 M45,328.6855 L58,343.6855 " fill="none" style="stroke:#000000;stroke-width:0.5;"/><text fill="#000000" font-family="sans-serif" font-size="14" font-weight="bold" lengthAdjust="spacing" textLength="48" x="21" y="359.7188">Bomba</text><text fill="#000000" font-family="sans-serif" font-size="14" font-style="italic" lengthAdjust="spacing" textLength="78" x="6" y="282.1094">&#171;submersa&#187;</text></g><!--entity BombaSuperior--><g id="elem_BombaSuperior"><ellipse cx="45" cy="423.6855" fill="#FFA500" rx="8" ry="8" style="stroke:#000000;stroke-width:0.5;"/><path d="M45,431.6855 L45,458.6855 M32,439.6855 L58,439.6855 M45,458.6855 L32,473.6855 M45,458.6855 L58,473.6855 " fill="none" style="stroke:#000000;stroke-width:0.5;"/><text fill="#000000" font-family="sans-serif" font-size="14" font-weight="bold" lengthAdjust="spacing" textLength="48" x="21" y="489.7188">Bomba</text><text fill="#000000" font-family="sans-serif" font-size="14" font-style="italic" lengthAdjust="spacing" textLength="68" x="11" y="412.1094">&#171;superior&#187;</text></g><!--entity SensoresDiversos--><g id="elem_SensoresDiversos"><ellipse cx="45" cy="553.6855" fill="#FFA500" rx="8" ry="8" style="stroke:#000000;stroke-width:0.5;"/><path d="M45,561.6855 L45,588.6855 M32,569.6855 L58,569.6855 M45,588.6855 L32,603.6855 M45,588.6855 L58,603.6855 " fill="none" style="stroke:#000000;stroke-width:0.5;"/><text fill="#000000" font-family="sans-serif" font-size="14" font-weight="bold" lengthAdjust="spacing" textLength="67" x="11.5" y="619.7188">Sensores</text><text fill="#000000" font-family="sans-serif" font-size="14" font-style="italic" lengthAdjust="spacing" textLength="68" x="11" y="542.1094">&#171;diversos&#187;</text></g><!--entity SensorTemperatura--><g id="elem_SensorTemperatura"><ellipse cx="45" cy="683.6855" fill="#FFA500" rx="8" ry="8" style="stroke:#000000;stroke-width:0.5;"/><path d="M45,691.6855 L45,718.6855 M32,699.6855 L58,699.6855 M45,718.6855 L32,733.6855 M45,718.6855 L58,733.6855 " fill="none" style="stroke:#000000;stroke-width:0.5;"/><text fill="#000000" font-family="sans-serif" font-size="14" font-weight="bold" lengthAdjust="spacing" textLength="50" x="20" y="749.7188">Sensor</text><text fill="#000000" font-family="sans-serif" font-size="14" font-style="italic" lengthAdjust="spacing" textLength="76" x="7" y="672.1094">&#171;DS18B20&#187;</text></g><!--link UC_InicializarSerial to UC_InicializarI2C--><g id="link_UC_InicializarSerial_UC_InicializarI2C"><path d="M298.5,181.0962 C298.5,192.7262 298.5,198.3562 298.5,209.9962 " fill="none" id="UC_InicializarSerial-to-UC_InicializarI2C" style="stroke:#181818;stroke-width:1.0;"/><polygon fill="#181818" points="298.5,215.9962,302.5,206.9962,298.5,210.9962,294.5,206.9962,298.5,215.9962" style="stroke:#181818;stroke-width:1.0;"/></g><!--link UC_InicializarI2C to UC_ConfigurarPortas--><g id="link_UC_InicializarI2C_UC_ConfigurarPortas"><path d="M298.5,272.0962 C298.5,283.7262 298.5,289.3562 298.5,300.9962 " fill="none" id="UC_InicializarI2C-to-UC_ConfigurarPortas" style="stroke:#181818;stroke-width:1.0;"/><polygon fill="#181818" points="298.5,306.9962,302.5,297.9962,298.5,301.9962,294.5,297.9962,298.5,306.9962" style="stroke:#181818;stroke-width:1.0;"/></g><!--link UC_ConfigurarPortas to UC_InicializarSensorTemperatura--><g id="link_UC_ConfigurarPortas_UC_InicializarSensorTemperatura"><path d="M298.5,363.0962 C298.5,374.7262 298.5,380.3562 298.5,391.9962 " fill="none" id="UC_ConfigurarPortas-to-UC_InicializarSensorTemperatura" style="stroke:#181818;stroke-width:1.0;"/><polygon fill="#181818" points="298.5,397.9962,302.5,388.9962,298.5,392.9962,294.5,388.9962,298.5,397.9962" style="stroke:#181818;stroke-width:1.0;"/></g><!--link UC_InicializarSensorTemperatura to UC_ExibirStatusInicializacao--><g id="link_UC_InicializarSensorTemperatura_UC_ExibirStatusInicializacao"><path d="M345.09,402.3062 C358.08,395.3262 372.19,387.5562 385,380.0762 C450.29,341.9562 519.2725,297.5263 562.2325,269.3563 " fill="none" id="UC_InicializarSensorTemperatura-to-UC_ExibirStatusInicializacao" style="stroke:#181818;stroke-width:1.0;"/><polygon fill="#181818" points="567.25,266.0662,557.5304,267.6563,563.0688,268.8079,561.9172,274.3463,567.25,266.0662" style="stroke:#181818;stroke-width:1.0;"/></g><!--link Serial to UC_InicializarSerial--><g id="link_Serial_UC_InicializarSerial"><path d="M69.57,72.7362 C82.23,81.5962 98.41,91.9162 114,99.0762 C158.22,119.3662 206.0796,132.7413 243.9296,141.6513 " fill="none" id="Serial-to-UC_InicializarSerial" style="stroke:#181818;stroke-width:1.0;"/><polygon fill="#181818" points="249.77,143.0262,241.926,137.0703,244.903,141.8805,240.0929,144.8575,249.77,143.0262" style="stroke:#181818;stroke-width:1.0;"/><text fill="#000000" font-family="sans-serif" font-size="13" lengthAdjust="spacing" textLength="48" x="123" y="95.5713">&#171;iniciar&#187;</text></g><!--reverse link Serial to UC_ExibirStatusInicializacao--><g id="link_Serial_UC_ExibirStatusInicializacao"><path d="M75.8174,55.6734 C132.3174,57.3434 272.13,65.5162 385,107.0762 C457.18,133.6562 531.3,185.7062 571.96,216.8462 " fill="none" id="Serial-backto-UC_ExibirStatusInicializacao" style="stroke:#181818;stroke-width:1.0;"/><polygon fill="#181818" points="69.82,55.4962,78.6979,59.7603,74.8178,55.6439,78.9342,51.7638,69.82,55.4962" style="stroke:#181818;stroke-width:1.0;"/><text fill="#000000" font-family="sans-serif" font-size="13" lengthAdjust="spacing" textLength="45" x="276" y="61.5713">&#171;exibir&#187;</text></g><!--link ProtocoloI2C to UC_InicializarI2C--><g id="link_ProtocoloI2C_UC_InicializarI2C"><path d="M88.4114,195.0267 C127.9214,204.2967 179.9386,216.4956 227.7586,227.7156 " fill="none" id="ProtocoloI2C-UC_InicializarI2C" style="stroke:#181818;stroke-width:1.0;"/><polygon fill="#181818" points="82.57,193.6562,90.4184,199.6062,87.4378,194.7983,92.2457,191.8177,82.57,193.6562" style="stroke:#181818;stroke-width:1.0;"/><polygon fill="#181818" points="233.6,229.0862,225.7517,223.1361,228.7322,227.944,223.9242,230.9246,233.6,229.0862" style="stroke:#181818;stroke-width:1.0;"/><text fill="#000000" font-family="sans-serif" font-size="13" lengthAdjust="spacing" textLength="64" x="115" y="199.5713">&#171;resposta&#187;</text></g><!--link Protocolo1Wire to UC_Inicializar1Wire--><g id="link_Protocolo1Wire_UC_Inicializar1Wire"><path d="M341.7816,521.0825 C393.8116,501.3925 478.3681,469.4092 540.0381,446.0792 " fill="none" id="Protocolo1Wire-UC_Inicializar1Wire" style="stroke:#181818;stroke-width:1.0;"/><polygon fill="#181818" points="336.17,523.2062,346.0032,523.7618,340.8463,521.4365,343.1717,516.2796,336.17,523.2062" style="stroke:#181818;stroke-width:1.0;"/><polygon fill="#181818" points="545.65,443.9562,535.8169,443.3994,540.9735,445.7253,538.6475,450.8819,545.65,443.9562" style="stroke:#181818;stroke-width:1.0;"/><text fill="#000000" font-family="sans-serif" font-size="13" lengthAdjust="spacing" textLength="64" x="416" y="466.5713">&#171;resposta&#187;</text></g><!--reverse link BombaSubmersa to UC_ConfigurarPortas--><g id="link_BombaSubmersa_UC_ConfigurarPortas"><path d="M90.1812,318.5908 C129.7512,321.7308 186.32,326.2362 233.47,329.9862 " fill="none" id="BombaSubmersa-backto-UC_ConfigurarPortas" style="stroke:#181818;stroke-width:1.0;"/><polygon fill="#181818" points="84.2,318.1162,92.8554,322.8156,89.1843,318.5117,93.4882,314.8406,84.2,318.1162" style="stroke:#181818;stroke-width:1.0;"/><text fill="#000000" font-family="sans-serif" font-size="13" lengthAdjust="spacing" textLength="48" x="123" y="317.5713">&#171;definir&#187;</text></g><!--reverse link BombaSuperior to UC_ConfigurarPortas--><g id="link_BombaSuperior_UC_ConfigurarPortas"><path d="M84.5556,426.9256 C113.2256,413.5256 150.45,396.3762 188,380.0762 C208.17,371.3162 230.61,362.0162 249.9,354.1662 " fill="none" id="BombaSuperior-backto-UC_ConfigurarPortas" style="stroke:#181818;stroke-width:1.0;"/><polygon fill="#181818" points="79.12,429.4662,88.9671,429.2791,83.6497,427.3491,85.5797,422.0316,79.12,429.4662" style="stroke:#181818;stroke-width:1.0;"/><text fill="#000000" font-family="sans-serif" font-size="13" lengthAdjust="spacing" textLength="48" x="123" y="382.5713">&#171;definir&#187;</text></g><!--reverse link SensoresDiversos to UC_ConfigurarPortas--><g id="link_SensoresDiversos_UC_ConfigurarPortas"><path d="M83.9238,548.2815 C115.5238,524.2215 156.83,487.1962 180,440.0762 C191.87,415.9362 171.58,401.3862 188,380.0762 C200.42,363.9562 219.61,353.5762 238.48,346.9062 " fill="none" id="SensoresDiversos-backto-UC_ConfigurarPortas" style="stroke:#181818;stroke-width:1.0;"/><polygon fill="#181818" points="79.15,551.9162,88.7338,549.6466,83.1281,548.8872,83.8875,543.2816,79.15,551.9162" style="stroke:#181818;stroke-width:1.0;"/><text fill="#000000" font-family="sans-serif" font-size="13" lengthAdjust="spacing" textLength="48" x="123" y="436.5713">&#171;definir&#187;</text></g><!--link SensorTemperatura to UC_InicializarSensorTemperatura--><g id="link_SensorTemperatura_UC_InicializarSensorTemperatura"><path d="M87.4652,669.1411 C119.0552,639.6411 158.29,596.8662 180,546.0762 C193,515.6562 168.23,498.6062 188,472.0762 C197.98,458.6862 207.1201,451.577 222.4501,444.817 " fill="none" id="SensorTemperatura-UC_InicializarSensorTemperatura" style="stroke:#181818;stroke-width:1.0;"/><polygon fill="#181818" points="83.08,673.2362,92.3879,670.017,86.7344,669.8236,86.9278,664.17,83.08,673.2362" style="stroke:#181818;stroke-width:1.0;"/><polygon fill="#181818" points="227.94,442.3962,218.0912,442.3675,223.3651,444.4136,221.319,449.6874,227.94,442.3962" style="stroke:#181818;stroke-width:1.0;"/><text fill="#000000" font-family="sans-serif" font-size="13" lengthAdjust="spacing" textLength="64" x="115" y="542.5713">&#171;resposta&#187;</text></g><!--link UC_InicializarSensorTemperatura to UC_Inicializar1Wire--><g id="link_UC_InicializarSensorTemperatura_UC_Inicializar1Wire"><path d="M384.99,424.9562 C424.24,424.4362 464.8605,423.9055 504.9405,423.3755 " fill="none" id="UC_InicializarSensorTemperatura-to-UC_Inicializar1Wire" style="stroke:#181818;stroke-width:1.0;stroke-dasharray:7.0,7.0;"/><polygon fill="#181818" points="510.94,423.2962,501.8879,419.4155,505.9404,423.3623,501.9937,427.4148,510.94,423.2962" style="stroke:#181818;stroke-width:1.0;"/><text fill="#000000" font-family="sans-serif" font-size="13" lengthAdjust="spacing" textLength="63" x="416.5" y="420.5713">&#171;depende&#187;</text></g><!--SRC=[ZLJ1Rfmm4BtxAonEcmD9DwUgGXoMfDLAFKIYLI-HAWDUOYthGJQaLQj-JG-zznEQ7-lO1XOmknjkpBptFFDcRBqNicQA7Ih8zxoW-eaLy4t8akvOfJaX5Tyrj06gHFdKq48edZS2926wPrAMDw3eJqBnsx1yNofePP50XL5GJ9RSfK0LNBbmLY6E_1ghj9hdJFCJEX_DyHyKvzBJUW-Awow7Ya6KnIbNWbNHJHO7D8fe3QfXD8ufqzIbB6hxxszon2Xe84V13lVG_szl4ujUXr-m-SlujO5PnWOE6Hi8kiqENEc-3fjCkzWYlCPAiRq9tCMw7gKsdG-CGZoZ5kYXKPU_wy8Zqa2vIzTlDxTl9enF_82diAPLZ10pRHnWnMdm30BNWpTjlReAx9JwYNrElcwboD5MyOCfPx3H2qRHH-dYmKaU-koJ1bVfoaphwZJTsdvMm0rmBf60t8aIcrKFPakqbJW6KS65L_StwPdZFU_cfNJkFihL23GNlFykCg7I1fFwoCqPM3MNfIwDGaV4ov-Ntu1YkFwBmmXZtspYs-zWSqV8aakUehyybmmAdSR9dWdfgryup2RUcHqMDcpkIO-Fml2ycPR7dPj88-ExRjWBRZaENgSQj7rBoFJ2Bz5imkEHoStlY_KCjho2xx0zM-Ja0NWrYynVWLSp_Nb5uUMX-pPT8bnVBzhMrrDpMN2Zyny0]--></g></svg>